<svg width="2056" height="2038" viewBox="0 0 2056 2038" xmlns="http://www.w3.org/2000/svg" xmlns:xlink="http://www.w3.org/1999/xlink"><svg data-name="Ebene 1" width="110" height="110" viewBox="-50 -50 110 110" x="1733" y="674" xmlns="http://www.w3.org/2000/svg"><path fill="#c41017" d="M0 4h10v2H0z"/></svg><svg data-name="Ebene 1" width="110" height="110" viewBox="-50 -50 110 110" x="1733" y="784" xmlns="http://www.w3.org/2000/svg"><path fill="#3b3c41" d="M0 4h10v2H0z"/></svg><svg data-name="Ebene 1" width="110" height="110" viewBox="-50 -50 110 110" x="1733" y="894" xmlns="http://www.w3.org/2000/svg"><path fill="#c41017" fill-rule="evenodd" d="M6 4h4v2H6v4H4V6H0V4h4V0h2v4z"/></svg><svg data-name="Ebene 1" width="110" height="110" viewBox="-50 -50 110 110" x="1733" y="1004" xmlns="http://www.w3.org/2000/svg"><path fill="#3b3c41" fill-rule="evenodd" d="M6 4h4v2H6v4H4V6H0V4h4V0h2v4z"/></svg><svg data-name="Ebene 1" width="123" height="113" viewBox="-50 -50 123 113" x="1368" y="631" xmlns="http://www.w3.org/2000/svg"><path fill="#ca0e2e" d="M0 1.095L1.058 0 11.5 10.81 21.942 0 23 1.095 11.5 13 0 1.095z"/></svg><svg data-name="Ebene 1" width="110" height="106" viewBox="-50 -50 110 106" x="1733" y="1114" xmlns="http://www.w3.org/2000/svg"><path d="M5 6a.773.773 0 01-.558-.24L.231 1.4a.839.839 0 010-1.16.77.77 0 011.116 0L5 4.025 8.652.24a.77.77 0 011.116 0 .839.839 0 010 1.157L5.558 5.76A.773.773 0 015 6z" fill="#c41017"/></svg><svg data-name="Ebene 1" width="123" height="113" viewBox="-50 -50 123 113" x="1368" y="744" xmlns="http://www.w3.org/2000/svg"><path fill="#3b3c41" d="M0 1.095L1.058 0 11.5 10.81 21.942 0 23 1.095 11.5 13 0 1.095z"/></svg><svg data-name="Ebene 1" width="110" height="106" viewBox="-50 -50 110 106" x="1733" y="1220" xmlns="http://www.w3.org/2000/svg"><path d="M5 6a.773.773 0 01-.558-.24L.231 1.4a.839.839 0 010-1.16.77.77 0 011.116 0L5 4.025 8.652.24a.77.77 0 011.116 0 .839.839 0 010 1.157L5.558 5.76A.773.773 0 015 6z" fill="#3b3c41"/></svg><svg data-name="Ebene 1" width="118" height="110" viewBox="-50 -50 118 110" x="1496" y="1062" xmlns="http://www.w3.org/2000/svg"><path fill="#fff" d="M18 0h-1.282L9 7.521 1.282 0H0v1.241L9 10l9-8.759V0z"/></svg><svg data-name="Ebene 1" width="123" height="113" viewBox="-50 -50 123 113" x="1368" y="857" xmlns="http://www.w3.org/2000/svg"><path fill="#fff" d="M0 1.095L1.058 0 11.5 10.81 21.942 0 23 1.095 11.5 13 0 1.095z"/></svg><svg data-name="Ebene 1" width="110" height="106" viewBox="-50 -50 110 106" x="1733" y="1326" xmlns="http://www.w3.org/2000/svg"><path d="M5 6a.773.773 0 01-.558-.24L.231 1.4a.839.839 0 010-1.16.77.77 0 011.116 0L5 4.025 8.652.24a.77.77 0 011.116 0 .839.839 0 010 1.157L5.558 5.76A.773.773 0 015 6z" fill="#fff"/></svg><svg data-name="Ebene 1" width="113" height="123" viewBox="-50 -50 113 123" x="1368" y="970" xmlns="http://www.w3.org/2000/svg"><path fill="#fff" d="M11.905 23L13 21.942 2.19 11.5 13 1.058 11.905 0 0 11.5 11.905 23z"/></svg><svg data-name="Ebene 1" width="108" height="114" viewBox="-50 -50 108 114" x="448" y="1600" xmlns="http://www.w3.org/2000/svg"><path fill="#fff" d="M6.964 14L8 12.959 2.072 7 8 1.041 6.964 0 0 7l6.964 7z"/></svg><svg data-name="Ebene 1" width="113" height="123" viewBox="-50 -50 113 123" x="1368" y="1093" xmlns="http://www.w3.org/2000/svg"><path fill="#ca0e2e" d="M1.095 23L0 21.942 10.81 11.5 0 1.058 1.095 0 13 11.5 1.095 23z"/></svg><svg data-name="Ebene 1" width="113" height="123" viewBox="-50 -50 113 123" x="1368" y="1216" xmlns="http://www.w3.org/2000/svg"><path fill="#3b3c41" d="M1.095 23L0 21.942 10.81 11.5 0 1.058 1.095 0 13 11.5 1.095 23z"/></svg><svg data-name="Ebene 1" width="108" height="114" viewBox="-50 -50 108 114" x="556" y="1600" xmlns="http://www.w3.org/2000/svg"><path fill="#c41017" d="M1.036 14L0 12.959 5.928 7 0 1.041 1.036 0 8 7l-6.964 7z"/></svg><svg data-name="Ebene 1" width="108" height="114" viewBox="-50 -50 108 114" x="664" y="1600" xmlns="http://www.w3.org/2000/svg"><path fill="#3b3c41" d="M1.036 14L0 12.959 5.928 7 0 1.041 1.036 0 8 7l-6.964 7z"/></svg><svg data-name="Ebene 1" width="108" height="114" viewBox="-50 -50 108 114" x="772" y="1600" xmlns="http://www.w3.org/2000/svg"><path fill="#fff" d="M1.036 14L0 12.959 5.928 7 0 1.041 1.036 0 8 7l-6.964 7z"/></svg><svg data-name="Ebene 1" width="113" height="123" viewBox="-50 -50 113 123" x="983" y="411" xmlns="http://www.w3.org/2000/svg"><path fill="#fff" d="M1.095 23L0 21.942 10.81 11.5 0 1.058 1.095 0 13 11.5 1.095 23z"/></svg><svg data-name="Ebene 1" width="123" height="113" viewBox="-50 -50 123 113" x="260" y="1109" xmlns="http://www.w3.org/2000/svg"><path fill="#ca0e2e" d="M0 11.905L1.058 13 11.5 2.19 21.942 13 23 11.905 11.5 0 0 11.905z"/></svg><svg data-name="Ebene 1" width="110" height="106" viewBox="-50 -50 110 106" x="1733" y="1432" xmlns="http://www.w3.org/2000/svg"><path d="M9.211 6a.773.773 0 01-.558-.24L5 1.975 1.348 5.76a.77.77 0 01-1.116 0 .839.839 0 010-1.157L4.442.24a.77.77 0 011.116 0L9.769 4.6a.839.839 0 010 1.157.773.773 0 01-.558.243z" fill="#c41017"/></svg><svg data-name="Ebene 1" width="123" height="113" viewBox="-50 -50 123 113" x="383" y="1109" xmlns="http://www.w3.org/2000/svg"><path fill="#3b3c41" d="M0 11.905L1.058 13 11.5 2.19 21.942 13 23 11.905 11.5 0 0 11.905z"/></svg><svg data-name="Ebene 1" width="110" height="106" viewBox="-50 -50 110 106" x="1733" y="1538" xmlns="http://www.w3.org/2000/svg"><path d="M9.211 6a.773.773 0 01-.558-.24L5 1.975 1.348 5.76a.77.77 0 01-1.116 0 .839.839 0 010-1.157L4.442.24a.77.77 0 011.116 0L9.769 4.6a.839.839 0 010 1.157.773.773 0 01-.558.243z" fill="#3b3c41"/></svg><svg data-name="Ebene 1" width="118" height="110" viewBox="-50 -50 118 110" x="1496" y="1172" xmlns="http://www.w3.org/2000/svg"><path fill="#fff" d="M18 10h-1.282L9 2.479 1.282 10H0V8.759L9 0l9 8.759V10z"/></svg><svg data-name="Ebene 1" width="123" height="113" viewBox="-50 -50 123 113" x="506" y="1109" xmlns="http://www.w3.org/2000/svg"><path fill="#fff" d="M0 11.905L1.058 13 11.5 2.19 21.942 13 23 11.905 11.5 0 0 11.905z"/></svg><svg data-name="Ebene 1" width="110" height="106" viewBox="-50 -50 110 106" x="1218.14" y="1600" xmlns="http://www.w3.org/2000/svg"><path d="M9.211 6a.773.773 0 01-.558-.24L5 1.975 1.348 5.76a.77.77 0 01-1.116 0 .839.839 0 010-1.157L4.442.24a.77.77 0 011.116 0L9.769 4.6a.839.839 0 010 1.157.773.773 0 01-.558.243z" fill="#fff"/></svg><svg data-name="Ebene 1" width="150" height="150" viewBox="-50 -50 150 150" y="261" xmlns="http://www.w3.org/2000/svg"><path fill="#3b3c41" d="M50 50H0V0h50z"/><path fill="#fff" d="M28.47 36.53L16.939 25 28.47 13.47l1.06 1.06L19.061 25 29.53 35.47l-1.06 1.06z"/></svg><svg data-name="Ebene 1" width="130" height="143" viewBox="-50 -50 130 143" x="580" y="411" xmlns="http://www.w3.org/2000/svg"><path fill="#3b3c41" d="M30 43H0V0h30z"/><path fill="#fff" d="M20.53 33.061L9 21.53 20.53 10l1.061 1.061-10.47 10.469L21.591 32l-1.061 1.061z"/></svg><svg data-name="Ebene 1" width="150" height="150" viewBox="-50 -50 150 150" x="150" y="261" xmlns="http://www.w3.org/2000/svg"><path fill="#c41017" d="M50 50H0V0h50z"/><path fill="#fff" d="M28.47 36.53L16.939 25 28.47 13.47l1.06 1.06L19.061 25 29.53 35.47l-1.06 1.06z"/></svg><svg data-name="Ebene 1" width="130" height="143" viewBox="-50 -50 130 143" x="710" y="411" xmlns="http://www.w3.org/2000/svg"><path fill="#c41017" d="M30 43H0V0h30z"/><path fill="#fff" d="M20.53 33.061L9 21.53 20.53 10l1.061 1.061-10.47 10.469L21.591 32l-1.061 1.061z"/></svg><svg data-name="Ebene 1" width="118" height="118" viewBox="-50 -50 118 118" x="1496" y="1282" xmlns="http://www.w3.org/2000/svg"><circle cx="9" cy="9" r="9" fill="#fff"/><path fill="#3b3c41" d="M13 6.448L11.552 5 9 7.552 6.448 5 5 6.448 7.552 9 5 11.552 6.448 13 9 10.448 11.552 13 13 11.552 10.448 9 13 6.448z"/></svg><svg data-name="Ebene 1" width="106" height="109" viewBox="-50 -50 106 109" x="1540" y="1715" xmlns="http://www.w3.org/2000/svg"><path fill="#3b3c41" d="M1.5 9L0 7.5l3-3-3-3L1.5 0 6 4.5 1.5 9z"/></svg><svg data-name="Ebene 1" width="107" height="113" viewBox="-50 -50 107 113" x="1733" y="228" xmlns="http://www.w3.org/2000/svg"><path fill="#cbcbcb" fill-rule="evenodd" d="M0 0v13l7-6.5L0 0z"/></svg><svg data-name="Ebene 1" width="116" height="116" viewBox="-50 -50 116 116" x="1616" y="345" xmlns="http://www.w3.org/2000/svg"><path d="M15.749 3.707a1 1 0 00-1.414-1.414l-9.314 9.314-3.314-3.314A1 1 0 10.293 9.707l4.021 4.021a1 1 0 001.414 0z" fill="#008448"/></svg><svg data-name="Ebene 1" width="145" height="145" viewBox="-50 -50 145 145" y="411" xmlns="http://www.w3.org/2000/svg"><path fill="#c41017" d="M28.796 22.5l-11.53-11.53-1.061 1.06 10.47 10.47-10.47 10.47 1.06 1.06z"/></svg><svg data-name="Ebene 1" width="145" height="145" viewBox="-50 -50 145 145" x="145" y="411" xmlns="http://www.w3.org/2000/svg"><path fill="#fff" d="M28.796 22.5l-11.53-11.53-1.061 1.06 10.47 10.47-10.47 10.47 1.06 1.06z"/></svg><svg height="145" width="145" data-name="Ebene 1" viewBox="-50 -50 145 145" x="290" y="411" xmlns="http://www.w3.org/2000/svg"><path fill="#c41017" d="M18.758 15l-.758.69 7.484 6.81L18 29.31l.758.69L27 22.5z"/></svg><svg height="145" width="145" data-name="Ebene 1" viewBox="-50 -50 145 145" x="435" y="411" xmlns="http://www.w3.org/2000/svg"><path fill="#fff" d="M18.758 15l-.758.69 7.484 6.81L18 29.31l.758.69L27 22.5z"/></svg><svg data-name="Ebene 1" width="116" height="116" viewBox="-50 -50 116 116" x="1616" y="461" xmlns="http://www.w3.org/2000/svg"><path d="M9.435 8.021l5.314-5.314a1 1 0 00-1.414-1.414L8.021 6.607 2.707 1.293a1 1 0 00-1.414 1.414l5.314 5.314-5.314 5.314a1 1 0 101.414 1.414l5.314-5.314 5.314 5.314a1 1 0 001.414-1.414z" fill="#c41017"/></svg><svg data-name="Ebene 1" width="120" height="120" viewBox="-50 -50 120 120" x="1089" y="1239" xmlns="http://www.w3.org/2000/svg"><circle cx="10" cy="10" r="10" fill="#3b3c41"/><path fill="#fff" d="M14.884 6.884l-1.768-1.768L10 8.232 6.884 5.116 5.116 6.884 8.232 10l-3.116 3.116 1.768 1.768L10 11.768l3.116 3.116 1.768-1.768L11.768 10l3.116-3.116z"/></svg><svg data-name="Ebene 1" width="116" height="116" viewBox="-50 -50 116 116" x="1616" y="577" xmlns="http://www.w3.org/2000/svg"><path d="M9.435 8.021l6.314-6.314A1 1 0 0014.335.293L8.021 6.607 1.707.293A1 1 0 00.293 1.707l6.314 6.314-6.314 6.314a1 1 0 101.414 1.414l6.314-6.314 6.314 6.314a1 1 0 001.414-1.414z" fill="#fff"/></svg><svg data-name="Ebene 1" width="120" height="120" viewBox="-50 -50 120 120" x="1209" y="1239" xmlns="http://www.w3.org/2000/svg"><path fill="#fff" d="M17.778 3.636l-1.414-1.414L10 8.586 3.636 2.222 2.222 3.636 8.586 10l-6.364 6.364 1.414 1.414L10 11.414l6.364 6.364 1.414-1.414L11.414 10l6.364-6.364z"/></svg><svg data-name="Ebene 1" width="117" height="114" viewBox="-50 -50 117 114" y="1486" xmlns="http://www.w3.org/2000/svg"><path d="M14.5 1a1.392 1.392 0 011.037.457 1.478 1.478 0 01.44 1.055v9a1.475 1.475 0 01-.44 1.054 1.392 1.392 0 01-1.037.457H2.477a1.392 1.392 0 01-1.038-.457A1.474 1.474 0 011 11.512v-9a1.477 1.477 0 01.439-1.055A1.392 1.392 0 012.477 1H14.5M8.488 6.273L2.477 2.512v1.511L8.488 7.75 14.5 4.023V2.512L8.488 6.273M14.5 0H2.477A2.4 2.4 0 00.719.764 2.482 2.482 0 000 2.512v9a2.483 2.483 0 00.72 1.749 2.39 2.39 0 001.757.762H14.5a2.392 2.392 0 001.757-.763 2.482 2.482 0 00.72-1.748v-9a2.485 2.485 0 00-.719-1.748A2.4 2.4 0 0014.5 0" fill="#c40f16"/></svg><svg data-name="Ebene 1" width="117" height="114" viewBox="-50 -50 117 114" x="117" y="1486" xmlns="http://www.w3.org/2000/svg"><path d="M14.5 1a1.392 1.392 0 011.037.457 1.478 1.478 0 01.44 1.055v9a1.475 1.475 0 01-.44 1.054 1.392 1.392 0 01-1.037.457H2.477a1.392 1.392 0 01-1.038-.457A1.474 1.474 0 011 11.512v-9a1.477 1.477 0 01.439-1.055A1.392 1.392 0 012.477 1H14.5M8.488 6.273L2.477 2.512v1.511L8.488 7.75 14.5 4.023V2.512L8.488 6.273M14.5 0H2.477A2.4 2.4 0 00.719.764 2.482 2.482 0 000 2.512v9a2.483 2.483 0 00.72 1.749 2.39 2.39 0 001.757.762H14.5a2.392 2.392 0 001.757-.763 2.482 2.482 0 00.72-1.748v-9a2.485 2.485 0 00-.719-1.748A2.4 2.4 0 0014.5 0" fill="#3b3c41"/></svg><svg data-name="Ebene 1" width="117" height="114" viewBox="-50 -50 117 114" x="234" y="1486" xmlns="http://www.w3.org/2000/svg"><path d="M14.5 1a1.392 1.392 0 011.037.457 1.478 1.478 0 01.44 1.055v9a1.475 1.475 0 01-.44 1.054 1.392 1.392 0 01-1.037.457H2.477a1.392 1.392 0 01-1.038-.457A1.474 1.474 0 011 11.512v-9a1.477 1.477 0 01.439-1.055A1.392 1.392 0 012.477 1H14.5M8.488 6.273L2.477 2.512v1.511L8.488 7.75 14.5 4.023V2.512L8.488 6.273M14.5 0H2.477A2.4 2.4 0 00.719.764 2.482 2.482 0 000 2.512v9a2.483 2.483 0 00.72 1.749 2.39 2.39 0 001.757.762H14.5a2.392 2.392 0 001.757-.763 2.482 2.482 0 00.72-1.748v-9a2.485 2.485 0 00-.719-1.748A2.4 2.4 0 0014.5 0" fill="#fff"/></svg><svg data-name="Ebene 1" width="117" height="115" viewBox="-50 -50 117 115" x="1616" xmlns="http://www.w3.org/2000/svg"><path d="M4.25 1a.694.694 0 01.711.711 8.08 8.08 0 00.406 2.573.692.692 0 01-.169.744L4.225 6a1.129 1.129 0 00-.189 1.379 10.718 10.718 0 003.509 3.537 1.218 1.218 0 00.646.187 1.138 1.138 0 00.809-.33l.971-.973a.679.679 0 01.482-.226.689.689 0 01.263.057 8.108 8.108 0 002.573.406.694.694 0 01.711.713v2.539a.694.694 0 01-.711.711 11.841 11.841 0 01-8.684-3.605A11.839 11.839 0 011 1.711.694.694 0 011.711 1H4.25m0-1H1.711A1.694 1.694 0 000 1.711 12.858 12.858 0 003.9 11.1a12.86 12.86 0 009.389 3.9A1.694 1.694 0 0015 13.289V10.75a1.692 1.692 0 00-1.711-1.711 7.121 7.121 0 01-2.23-.346 1.623 1.623 0 00-1.794.4l-.972.972a.131.131 0 01-.1.039.214.214 0 01-.117-.035 9.781 9.781 0 01-3.188-3.211.144.144 0 01.044-.149l.973-.974a1.691 1.691 0 00.418-1.744 7.188 7.188 0 01-.362-2.28A1.694 1.694 0 004.25 0" fill="#c40f16"/></svg><svg data-name="Ebene 1" width="117" height="115" viewBox="-50 -50 117 115" x="1616" y="115" xmlns="http://www.w3.org/2000/svg"><path d="M4.25 1a.694.694 0 01.711.711 8.08 8.08 0 00.406 2.573.692.692 0 01-.169.744L4.225 6a1.129 1.129 0 00-.189 1.379 10.718 10.718 0 003.509 3.537 1.218 1.218 0 00.646.187 1.138 1.138 0 00.809-.33l.971-.973a.679.679 0 01.482-.226.689.689 0 01.263.057 8.108 8.108 0 002.573.406.694.694 0 01.711.713v2.539a.694.694 0 01-.711.711 11.841 11.841 0 01-8.684-3.605A11.839 11.839 0 011 1.711.694.694 0 011.711 1H4.25m0-1H1.711A1.694 1.694 0 000 1.711 12.858 12.858 0 003.9 11.1a12.86 12.86 0 009.389 3.9A1.694 1.694 0 0015 13.289V10.75a1.692 1.692 0 00-1.711-1.711 7.121 7.121 0 01-2.23-.346 1.623 1.623 0 00-1.794.4l-.972.972a.131.131 0 01-.1.039.214.214 0 01-.117-.035 9.781 9.781 0 01-3.188-3.211.144.144 0 01.044-.149l.973-.974a1.691 1.691 0 00.418-1.744 7.188 7.188 0 01-.362-2.28A1.694 1.694 0 004.25 0" fill="#3b3c41"/></svg><svg data-name="Ebene 1" width="117" height="115" viewBox="-50 -50 117 115" x="1616" y="230" xmlns="http://www.w3.org/2000/svg"><path d="M4.25 1a.694.694 0 01.711.711 8.08 8.08 0 00.406 2.573.692.692 0 01-.169.744L4.225 6a1.129 1.129 0 00-.189 1.379 10.718 10.718 0 003.509 3.537 1.218 1.218 0 00.646.187 1.138 1.138 0 00.809-.33l.971-.973a.679.679 0 01.482-.226.689.689 0 01.263.057 8.108 8.108 0 002.573.406.694.694 0 01.711.713v2.539a.694.694 0 01-.711.711 11.841 11.841 0 01-8.684-3.605A11.839 11.839 0 011 1.711.694.694 0 011.711 1H4.25m0-1H1.711A1.694 1.694 0 000 1.711 12.858 12.858 0 003.9 11.1a12.86 12.86 0 009.389 3.9A1.694 1.694 0 0015 13.289V10.75a1.692 1.692 0 00-1.711-1.711 7.121 7.121 0 01-2.23-.346 1.623 1.623 0 00-1.794.4l-.972.972a.131.131 0 01-.1.039.214.214 0 01-.117-.035 9.781 9.781 0 01-3.188-3.211.144.144 0 01.044-.149l.973-.974a1.691 1.691 0 00.418-1.744 7.188 7.188 0 01-.362-2.28A1.694 1.694 0 004.25 0" fill="#fff"/></svg><svg data-name="Ebene 1" width="1070" height="111" viewBox="-50 -50 1070 111" y="150" xmlns="http://www.w3.org/2000/svg"><path fill="#ededed" d="M646 0h324v11H646z"/><path fill="#fff" d="M0 0h646v11H0z"/></svg><svg data-name="Ebene 1" width="109" height="105" viewBox="-50 -50 109 105" x="1328.14" y="1600" xmlns="http://www.w3.org/2000/svg"><path d="M0 .682A.666.666 0 01.208.2a.732.732 0 011 0L4.5 3.354 7.787.2a.732.732 0 011 0 .663.663 0 010 .964L5 4.8a.732.732 0 01-1 0L.208 1.164A.666.666 0 010 .682z" fill="#c41017"/></svg><svg data-name="Ebene 1" width="120" height="111" viewBox="-50 -50 120 111" x="873" y="1109" xmlns="http://www.w3.org/2000/svg"><path d="M10 10.732a.729.729 0 01-.517-.214L.214 1.249A.732.732 0 011.249.214L10 8.965 18.751.214a.732.732 0 111.035 1.035l-9.268 9.268a.729.729 0 01-.518.215z" fill="#c41017"/></svg><svg data-name="Ebene 1" width="109" height="105" viewBox="-50 -50 109 105" x="1437.14" y="1600" xmlns="http://www.w3.org/2000/svg"><path d="M0 .682A.666.666 0 01.208.2a.732.732 0 011 0L4.5 3.354 7.787.2a.732.732 0 011 0 .663.663 0 010 .964L5 4.8a.732.732 0 01-1 0L.208 1.164A.666.666 0 010 .682z" fill="#3b3c41"/></svg><svg data-name="Ebene 1" width="120" height="111" viewBox="-50 -50 120 111" x="993" y="1109" xmlns="http://www.w3.org/2000/svg"><path d="M10 10.732a.729.729 0 01-.517-.214L.214 1.249A.732.732 0 011.249.214L10 8.965 18.751.214a.732.732 0 111.035 1.035l-9.268 9.268a.729.729 0 01-.518.215z" fill="#3b3c41"/></svg><svg data-name="Ebene 1" width="109" height="105" viewBox="-50 -50 109 105" x="1546.14" y="1600" xmlns="http://www.w3.org/2000/svg"><path d="M0 .682A.666.666 0 01.208.2a.732.732 0 011 0L4.5 3.354 7.787.2a.732.732 0 011 0 .663.663 0 010 .964L5 4.8a.732.732 0 01-1 0L.208 1.164A.666.666 0 010 .682z" fill="#fff"/></svg><svg data-name="Ebene 1" width="120" height="111" viewBox="-50 -50 120 111" x="1113" y="1109" xmlns="http://www.w3.org/2000/svg"><path d="M10 10.732a.729.729 0 01-.517-.214L.214 1.249A.732.732 0 011.249.214L10 8.965 18.751.214a.732.732 0 111.035 1.035l-9.268 9.268a.729.729 0 01-.518.215z" fill="#fff"/></svg><svg data-name="Ebene 1" width="114" height="113" viewBox="-50 -50 114 113" x="880" y="1600" xmlns="http://www.w3.org/2000/svg"><g fill="#fff"><path d="M14 10h-2V8h-1v2H9v1h2v2h1v-2h2v-1zm-4-1.333H2a3.021 3.021 0 011.375-1.125A7.165 7.165 0 016 7a7.165 7.165 0 012.625.542A3.021 3.021 0 0110 8.667M7.417 5.4a1.963 1.963 0 01-2.833 0 1.961 1.961 0 010-2.792 1.963 1.963 0 012.833 0 1.963 1.963 0 010 2.792"/><path d="M1 10V1h10v6h1V0H0v11h8v-1H1z"/></g></svg><svg data-name="Ebene 1" width="112" height="111" viewBox="-50 -50 112 111" x="1733" y="341" xmlns="http://www.w3.org/2000/svg"><g fill="#fff"><path d="M1 1h10v5.086L7.086 10H1zM0 0v11h7.5L12 6.5V0z"/><path d="M3 3h6v1H3zm0 2h5v1H3zm0 2h3.001v1H3z"/></g></svg><svg data-name="Ebene 1" width="107" height="107" viewBox="-50 -50 107 107" y="1931" xmlns="http://www.w3.org/2000/svg"><path d="M6.785 6.785a.734.734 0 01-1.252-.519v-4.8H.734A.734.734 0 01.734 0h5.532A.734.734 0 017 .734v5.532a.731.731 0 01-.215.519z" fill="#c41017"/></svg><svg data-name="Ebene 1" width="107" height="107" viewBox="-50 -50 107 107" x="107" y="1931" xmlns="http://www.w3.org/2000/svg"><path d="M6.785 6.785a.734.734 0 01-1.252-.519v-4.8H.734A.734.734 0 01.734 0h5.532A.734.734 0 017 .734v5.532a.731.731 0 01-.215.519z" fill="#3b3c41"/></svg><svg data-name="Ebene 1" width="107" height="107" viewBox="-50 -50 107 107" x="214" y="1931" xmlns="http://www.w3.org/2000/svg"><path d="M6.785 6.785a.734.734 0 01-1.252-.519v-4.8H.734A.734.734 0 01.734 0h5.532A.734.734 0 017 .734v5.532a.731.731 0 01-.215.519z" fill="#fff"/></svg><svg data-name="Ebene 1" width="132" height="132" viewBox="-50 -50 132 132" x="544" y="556" xmlns="http://www.w3.org/2000/svg"><path d="M28.455 2H3.545A1.545 1.545 0 002 3.545v24.91A1.545 1.545 0 003.545 30h13.41V19.157h-3.648v-4.226h3.649v-3.116c0-3.617 2.209-5.586 5.435-5.586a29.943 29.943 0 013.261.166v3.78h-2.238c-1.755 0-2.094.834-2.094 2.057v2.7h4.18l-.545 4.226h-3.64V30h7.135A1.545 1.545 0 0030 28.455V3.545A1.545 1.545 0 0028.455 2z" fill="#c41017"/></svg><svg data-name="Ebene 1" width="132" height="132" viewBox="-50 -50 132 132" x="676" y="556" xmlns="http://www.w3.org/2000/svg"><path d="M28.455 2H3.545A1.545 1.545 0 002 3.545v24.91A1.545 1.545 0 003.545 30h13.41V19.157h-3.648v-4.226h3.649v-3.116c0-3.617 2.209-5.586 5.435-5.586a29.943 29.943 0 013.261.166v3.78h-2.238c-1.755 0-2.094.834-2.094 2.057v2.7h4.18l-.545 4.226h-3.64V30h7.135A1.545 1.545 0 0030 28.455V3.545A1.545 1.545 0 0028.455 2z" fill="#3b3c41"/></svg><svg data-name="Ebene 1" width="120" height="120" viewBox="-50 -50 120 120" y="1366" xmlns="http://www.w3.org/2000/svg"><path d="M18.9 0H1.1A1.1 1.1 0 000 1.1v17.8A1.1 1.1 0 001.1 20h9.579v-7.745H8.076V9.237h2.606V7.011a3.637 3.637 0 013.882-3.99 21.388 21.388 0 012.329.119v2.7H15.3c-1.253 0-1.5.6-1.5 1.469v1.928h2.989l-.389 3.018h-2.6V20h5.1a1.1 1.1 0 001.1-1.1V1.1A1.1 1.1 0 0018.9 0z" fill="#fff"/></svg><svg data-name="Ebene 1" width="112" height="114" viewBox="-50 -50 112 114" x="1733" xmlns="http://www.w3.org/2000/svg"><path d="M10.964 0L12 1.041 6.072 7 12 12.959 10.964 14 4 7l6.964-7zM2 14H0V0h2z" fill="#fff"/></svg><svg data-name="Ebene 1" width="115" height="115" viewBox="-50 -50 115 115" x="1616" y="1157" xmlns="http://www.w3.org/2000/svg"><path d="M7.9 14.969c-1.75 0-4.042-2.167-4.917-3.167S.9 9.723.648 9.375c-.5-.7-.687-.931-.641-1.344.1-.869 1.859-.719 2.891.281.881.854 2.109 1 2.109-.094s-1.625-4.655-1.859-5.53.125-1.547.594-1.641 1.172.313 1.719 1.688S7.07 6.859 7.054 5.469 7.007 1.7 6.991 1.516 6.945 0 7.991 0s1.032.891 1.032 1.3-.062 4.672.25 4.266 1.388-3.18 1.6-3.633a.918.918 0 011.355-.414c.438.25.516.938-.031 2.234s-1.172 3.026-.922 3.01a21.6 21.6 0 002.281-2.245c.375-.359 1-.578 1.3-.094s.047 1.156-.484 1.813a10.114 10.114 0 00-2.01 2.984 29.381 29.381 0 00-.625 3.292c-.365 1.529-.73 2.456-3.837 2.456z" fill="#c41017"/></svg><svg data-name="Ebene 1" width="115" height="115" viewBox="-50 -50 115 115" x="1616" y="1272" xmlns="http://www.w3.org/2000/svg"><path d="M7.9 14.969c-1.75 0-4.042-2.167-4.917-3.167S.9 9.723.648 9.375c-.5-.7-.687-.931-.641-1.344.1-.869 1.859-.719 2.891.281.881.854 2.109 1 2.109-.094s-1.625-4.655-1.859-5.53.125-1.547.594-1.641 1.172.313 1.719 1.688S7.07 6.859 7.054 5.469 7.007 1.7 6.991 1.516 6.945 0 7.991 0s1.032.891 1.032 1.3-.062 4.672.25 4.266 1.388-3.18 1.6-3.633a.918.918 0 011.355-.414c.438.25.516.938-.031 2.234s-1.172 3.026-.922 3.01a21.6 21.6 0 002.281-2.245c.375-.359 1-.578 1.3-.094s.047 1.156-.484 1.813a10.114 10.114 0 00-2.01 2.984 29.381 29.381 0 00-.625 3.292c-.365 1.529-.73 2.456-3.837 2.456z" fill="#3b3c41"/></svg><svg data-name="Ebene 1" width="115" height="115" viewBox="-50 -50 115 115" x="1616" y="1387" xmlns="http://www.w3.org/2000/svg"><path d="M7.9 14.969c-1.75 0-4.042-2.167-4.917-3.167S.9 9.723.648 9.375c-.5-.7-.687-.931-.641-1.344.1-.869 1.859-.719 2.891.281.881.854 2.109 1 2.109-.094s-1.625-4.655-1.859-5.53.125-1.547.594-1.641 1.172.313 1.719 1.688S7.07 6.859 7.054 5.469 7.007 1.7 6.991 1.516 6.945 0 7.991 0s1.032.891 1.032 1.3-.062 4.672.25 4.266 1.388-3.18 1.6-3.633a.918.918 0 011.355-.414c.438.25.516.938-.031 2.234s-1.172 3.026-.922 3.01a21.6 21.6 0 002.281-2.245c.375-.359 1-.578 1.3-.094s.047 1.156-.484 1.813a10.114 10.114 0 00-2.01 2.984 29.381 29.381 0 00-.625 3.292c-.365 1.529-.73 2.456-3.837 2.456z" fill="#fff"/></svg><svg data-name="Ebene 1" width="132" height="132" viewBox="-50 -50 132 132" x="808" y="556" xmlns="http://www.w3.org/2000/svg"><path d="M2.024 15.448a8.872 8.872 0 018.87-8.441 9.012 9.012 0 015.94 2.2 31.658 31.658 0 01-2.255 2.335c-2.021-1.4-4.9-1.8-6.917-.183a5.693 5.693 0 00-.242 8.874c2.7 2.454 7.817 1.236 8.564-2.522-1.694-.025-3.392 0-5.087-.055 0-1.011-.008-2.021 0-3.032 2.832-.008 5.664-.013 8.5.008a10.194 10.194 0 01-1.6 6.874c-2.212 3.112-6.653 4.021-10.118 2.688a8.9 8.9 0 01-5.655-8.746zm22.894-3.379h2.526c0 .845.008 1.694.017 2.539.845.008 1.694.008 2.539.017v2.526c-.845.008-1.69.013-2.539.021q-.013 1.274-.017 2.539h-2.531c-.008-.845-.008-1.69-.017-2.535l-2.539-.025v-2.526q1.267-.013 2.539-.017.004-1.274.022-2.539z" fill="#c41017"/></svg><svg data-name="Ebene 1" width="132" height="132" viewBox="-50 -50 132 132" x="940" y="556" xmlns="http://www.w3.org/2000/svg"><path d="M2.024 15.448a8.872 8.872 0 018.87-8.441 9.012 9.012 0 015.94 2.2 31.658 31.658 0 01-2.255 2.335c-2.021-1.4-4.9-1.8-6.917-.183a5.693 5.693 0 00-.242 8.874c2.7 2.454 7.817 1.236 8.564-2.522-1.694-.025-3.392 0-5.087-.055 0-1.011-.008-2.021 0-3.032 2.832-.008 5.664-.013 8.5.008a10.194 10.194 0 01-1.6 6.874c-2.212 3.112-6.653 4.021-10.118 2.688a8.9 8.9 0 01-5.655-8.746zm22.894-3.379h2.526c0 .845.008 1.694.017 2.539.845.008 1.694.008 2.539.017v2.526c-.845.008-1.69.013-2.539.021q-.013 1.274-.017 2.539h-2.531c-.008-.845-.008-1.69-.017-2.535l-2.539-.025v-2.526q1.267-.013 2.539-.017.004-1.274.022-2.539z" fill="#3b3c41"/></svg><svg data-name="Ebene 1" width="120" height="120" viewBox="-50 -50 120 120" x="120" y="1366" xmlns="http://www.w3.org/2000/svg"><path d="M.017 10.035a6.337 6.337 0 016.335-6.03A6.437 6.437 0 0110.6 5.573a22.613 22.613 0 01-1.61 1.668 4.19 4.19 0 00-4.94-.13 4.067 4.067 0 00-.173 6.339c1.932 1.753 5.583.883 6.117-1.8-1.21-.018-2.423 0-3.633-.039 0-.722-.006-1.444 0-2.165 2.023-.006 4.046-.009 6.072.006a7.281 7.281 0 01-1.146 4.91 6.269 6.269 0 01-7.227 1.92 6.356 6.356 0 01-4.043-6.247zM16.37 7.62h1.8c0 .6.006 1.21.012 1.814.6.006 1.21.006 1.814.012v1.8c-.6.006-1.207.009-1.814.015q-.009.91-.012 1.814h-1.803c-.006-.6-.006-1.207-.012-1.811l-1.814-.018v-1.8q.905-.009 1.814-.012.004-.91.015-1.814z" fill="#fff"/></svg><svg data-name="Ebene 1" width="104" height="104" viewBox="-50 -50 104 104" x="1950" y="109" xmlns="http://www.w3.org/2000/svg"><path fill="none" d="M0 0h4v4H0z"/><path fill="#252528" d="M0 3h1v1H0zm1-1h1v1H1zm1-1h1v1H2zm1-1h1v1H3z"/></svg><svg data-name="Ebene 1" width="104" height="104" viewBox="-50 -50 104 104" x="1950" y="213" xmlns="http://www.w3.org/2000/svg"><path fill="none" d="M0 0h4v4H0z"/><path fill="#fff" d="M0 3h1v1H0zm1-1h1v1H1zm1-1h1v1H2zm1-1h1v1H3z"/></svg><svg data-name="Ebene 1" width="143" height="139" viewBox="-50 -50 143 139" x="840" y="411" xmlns="http://www.w3.org/2000/svg"><g fill="#fff"><path d="M39.857 38.7a1.748 1.748 0 01-.739-.165 24.4 24.4 0 01-7.624-5.324A3.851 3.851 0 0028.684 32H6.694A6.7 6.7 0 010 25.305V6.695A6.7 6.7 0 016.694 0h29.612A6.7 6.7 0 0143 6.695v18.61a6.688 6.688 0 01-3 5.583V31a11.412 11.412 0 001.344 5.073 1.738 1.738 0 01-1.487 2.627zM6.694 2A4.7 4.7 0 002 6.695v18.61A4.7 4.7 0 006.694 30h21.99a5.858 5.858 0 014.273 1.849 21.877 21.877 0 006.28 4.525A13.725 13.725 0 0138 31v-1.275l.526-.283A4.693 4.693 0 0041 25.305V6.695A4.7 4.7 0 0036.306 2z"/><path d="M15 18.313L26.315 7l2.122 2.121-11.314 11.314zm0 .001l-1.406 3.249 3.527-1.128L15 18.314zM12 24h16.5v2H12z"/></g></svg><svg data-name="Ebene 1" width="111" height="111" viewBox="-50 -50 111 111" x="1733" y="452" xmlns="http://www.w3.org/2000/svg"><path d="M5.5 1.84l3.957 2.808.04.032a.306.306 0 010 .045v4.894h-8V4.684a.28.28 0 01.032-.028L5.5 1.84M5.5 0L.665 3.434A1.509 1.509 0 000 4.725v6.394h11V4.725a1.509 1.509 0 00-.665-1.291z" fill="#c41017"/></svg><svg data-name="Ebene 1" width="111" height="111" viewBox="-50 -50 111 111" x="1733" y="563" xmlns="http://www.w3.org/2000/svg"><path d="M5.5 1.84l3.957 2.808.04.032a.306.306 0 010 .045v4.894h-8V4.684a.28.28 0 01.032-.028L5.5 1.84M5.5 0L.665 3.434A1.509 1.509 0 000 4.725v6.394h11V4.725a1.509 1.509 0 00-.665-1.291z" fill="#3b3c41"/></svg><svg data-name="Ebene 1" width="130" height="130" viewBox="-50 -50 130 130" x="1236" y="656" xmlns="http://www.w3.org/2000/svg"><path fill="#c41017" d="M0 0h30v30H0z"/><path d="M6.972 15.986v7.042h7.042V25H6.972A2 2 0 015 23.028v-7.042zm5.012.014l3 3.692L17 17.028 20 21H8zM23.028 5A2 2 0 0125 6.972v7.042h-1.972V6.972h-7.042V5zm-3.451 5.423a1.474 1.474 0 11-1.056-.446 1.446 1.446 0 011.056.446z" fill="#fff"/></svg><svg data-name="Ebene 1" width="130" height="130" viewBox="-50 -50 130 130" x="1236" y="786" xmlns="http://www.w3.org/2000/svg"><path fill="#3b3c41" d="M0 0h30v30H0z"/><path d="M6.972 15.986v7.042h7.042V25H6.972A2 2 0 015 23.028v-7.042zm5.012.014l3 3.692L17 17.028 20 21H8zM23.028 5A2 2 0 0125 6.972v7.042h-1.972V6.972h-7.042V5zm-3.451 5.423a1.474 1.474 0 11-1.056-.446 1.446 1.446 0 011.056.446z" fill="#fff"/></svg><svg data-name="Ebene 1" width="132" height="132" viewBox="-50 -50 132 132" y="977" xmlns="http://www.w3.org/2000/svg"><path d="M30 16q0 4.175-.091 5.779a8.551 8.551 0 01-2.26 5.87 8.553 8.553 0 01-5.87 2.26Q20.174 30 16 30t-5.779-.091a8.551 8.551 0 01-5.87-2.26 8.55 8.55 0 01-2.26-5.87Q2 20.175 2 16t.091-5.779a8.55 8.55 0 012.26-5.87 8.552 8.552 0 015.87-2.261Q11.825 2 16 2t5.779.091a8.553 8.553 0 015.87 2.261 8.551 8.551 0 012.26 5.87Q30 11.826 30 16zM17.394 4.506L16 4.516l-1.394-.009q-1.267-.009-1.923 0t-1.759.055a14.479 14.479 0 00-1.878.182 7.318 7.318 0 00-1.3.337 4.774 4.774 0 00-2.665 2.661 7.289 7.289 0 00-.337 1.3 14.424 14.424 0 00-.182 1.878q-.045 1.1-.055 1.759t0 1.923l.009 1.395-.009 1.394q-.009 1.267 0 1.923t.055 1.759a14.413 14.413 0 00.182 1.878 7.275 7.275 0 00.337 1.3 4.773 4.773 0 002.661 2.662 7.286 7.286 0 001.3.337 14.413 14.413 0 001.878.182q1.1.046 1.759.055t1.923 0L16 27.484l1.394.009q1.267.009 1.923 0t1.759-.055a14.431 14.431 0 001.878-.182 7.3 7.3 0 001.3-.337 4.771 4.771 0 002.661-2.662 7.316 7.316 0 00.337-1.3 14.417 14.417 0 00.182-1.878q.045-1.1.055-1.759t0-1.923l-.009-1.394.009-1.395q.009-1.267 0-1.923t-.055-1.759a14.429 14.429 0 00-.182-1.878 7.33 7.33 0 00-.337-1.3 4.772 4.772 0 00-2.661-2.662 7.332 7.332 0 00-1.3-.337 14.5 14.5 0 00-1.878-.182q-1.1-.045-1.759-.055t-1.923-.006zm3.691 6.408A6.926 6.926 0 0123.182 16 7.158 7.158 0 0116 23.182 7.157 7.157 0 018.818 16 7.157 7.157 0 0116 8.818a6.926 6.926 0 015.086 2.096zM19.3 19.3a4.665 4.665 0 000-6.6 4.665 4.665 0 00-6.6 0 4.665 4.665 0 000 6.6 4.665 4.665 0 006.6 0zm5.359-11.959a1.672 1.672 0 010 2.37A1.677 1.677 0 0121.8 8.526a1.676 1.676 0 012.862-1.185z" fill="#c41017"/></svg><svg data-name="Ebene 1" width="132" height="132" viewBox="-50 -50 132 132" x="132" y="977" xmlns="http://www.w3.org/2000/svg"><path d="M30 16q0 4.175-.091 5.779a8.551 8.551 0 01-2.26 5.87 8.553 8.553 0 01-5.87 2.26Q20.174 30 16 30t-5.779-.091a8.551 8.551 0 01-5.87-2.26 8.55 8.55 0 01-2.26-5.87Q2 20.175 2 16t.091-5.779a8.55 8.55 0 012.26-5.87 8.552 8.552 0 015.87-2.261Q11.825 2 16 2t5.779.091a8.553 8.553 0 015.87 2.261 8.551 8.551 0 012.26 5.87Q30 11.826 30 16zM17.394 4.506L16 4.516l-1.394-.009q-1.267-.009-1.923 0t-1.759.055a14.479 14.479 0 00-1.878.182 7.318 7.318 0 00-1.3.337 4.774 4.774 0 00-2.665 2.661 7.289 7.289 0 00-.337 1.3 14.424 14.424 0 00-.182 1.878q-.045 1.1-.055 1.759t0 1.923l.009 1.395-.009 1.394q-.009 1.267 0 1.923t.055 1.759a14.413 14.413 0 00.182 1.878 7.275 7.275 0 00.337 1.3 4.773 4.773 0 002.661 2.662 7.286 7.286 0 001.3.337 14.413 14.413 0 001.878.182q1.1.046 1.759.055t1.923 0L16 27.484l1.394.009q1.267.009 1.923 0t1.759-.055a14.431 14.431 0 001.878-.182 7.3 7.3 0 001.3-.337 4.771 4.771 0 002.661-2.662 7.316 7.316 0 00.337-1.3 14.417 14.417 0 00.182-1.878q.045-1.1.055-1.759t0-1.923l-.009-1.394.009-1.395q.009-1.267 0-1.923t-.055-1.759a14.429 14.429 0 00-.182-1.878 7.33 7.33 0 00-.337-1.3 4.772 4.772 0 00-2.661-2.662 7.332 7.332 0 00-1.3-.337 14.5 14.5 0 00-1.878-.182q-1.1-.045-1.759-.055t-1.923-.006zm3.691 6.408A6.926 6.926 0 0123.182 16 7.158 7.158 0 0116 23.182 7.157 7.157 0 018.818 16 7.157 7.157 0 0116 8.818a6.926 6.926 0 015.086 2.096zM19.3 19.3a4.665 4.665 0 000-6.6 4.665 4.665 0 00-6.6 0 4.665 4.665 0 000 6.6 4.665 4.665 0 006.6 0zm5.359-11.959a1.672 1.672 0 010 2.37A1.677 1.677 0 0121.8 8.526a1.676 1.676 0 012.862-1.185z" fill="#333"/></svg><svg data-name="Ebene 1" width="120" height="120" viewBox="-50 -50 120 120" x="240" y="1366" xmlns="http://www.w3.org/2000/svg"><path d="M20 10q0 2.982-.065 4.128a6.108 6.108 0 01-1.615 4.192 6.109 6.109 0 01-4.193 1.614Q12.982 20 10 20t-4.128-.065A6.108 6.108 0 011.68 18.32a6.107 6.107 0 01-1.615-4.192Q0 12.982 0 10t.065-4.128A6.107 6.107 0 011.68 1.68 6.108 6.108 0 015.872.065Q7.018 0 10 0t4.128.065A6.109 6.109 0 0118.32 1.68a6.108 6.108 0 011.615 4.193Q20 7.018 20 10zm-9-8.21l-1 .01-1-.01q-.905-.006-1.374 0t-1.257.039a10.342 10.342 0 00-1.341.13A5.227 5.227 0 004.1 2.2a3.41 3.41 0 00-1.9 1.9 5.206 5.206 0 00-.241.931 10.3 10.3 0 00-.13 1.341q-.029.79-.039 1.258t0 1.37l.006 1-.006 1q-.007.905 0 1.374t.039 1.257a10.3 10.3 0 00.13 1.341 5.2 5.2 0 00.241.928 3.409 3.409 0 001.9 1.9 5.2 5.2 0 00.931.241 10.3 10.3 0 001.341.13q.788.033 1.257.039t1.371 0l1-.007 1 .007q.9.007 1.374 0t1.257-.039a10.308 10.308 0 001.341-.13 5.214 5.214 0 00.928-.241 3.408 3.408 0 001.9-1.9 5.225 5.225 0 00.241-.931 10.3 10.3 0 00.13-1.341q.032-.788.039-1.257t0-1.374l-.007-1 .007-1q.006-.9 0-1.374t-.04-1.249a10.306 10.306 0 00-.13-1.341 5.236 5.236 0 00-.24-.933 3.409 3.409 0 00-1.9-1.9 5.237 5.237 0 00-.931-.241 10.355 10.355 0 00-1.341-.13q-.79-.029-1.258-.039t-1.37 0zm2.637 4.577A4.947 4.947 0 0115.13 10 5.113 5.113 0 0110 15.13 5.112 5.112 0 014.87 10 5.112 5.112 0 0110 4.87a4.947 4.947 0 013.633 1.497zm-1.276 5.99A3.211 3.211 0 0013.333 10 3.334 3.334 0 0010 6.667 3.334 3.334 0 006.667 10 3.334 3.334 0 0010 13.333a3.212 3.212 0 002.357-.976zm3.828-8.542a1.194 1.194 0 010 1.693 1.2 1.2 0 01-2.044-.846 1.2 1.2 0 012.044-.846z" fill="#fff"/></svg><svg data-name="Ebene 1" width="112" height="114" viewBox="-50 -50 112 114" x="1733" y="114" xmlns="http://www.w3.org/2000/svg"><path d="M1.036 14L0 12.959 5.928 7 0 1.041 1.036 0 8 7l-6.964 7zM10 0h2v14h-2z" fill="#fff"/></svg><svg data-name="Ebene 1" width="115" height="120" viewBox="-50 -50 115 120" x="360" y="1366" xmlns="http://www.w3.org/2000/svg"><path d="M14.815 4.444L8.148 10.37V20l6.667-6.42V4.444zM0 4.444v9.63L6.667 20v-9.63zm5.926 12.593L.741 12.593v-1.482l5.185 4.444zm0-3.7L.741 8.889V7.407l5.185 4.444zm1.481-4.448l5-4.263a5.273 5.273 0 00-5-4.626 5.273 5.273 0 00-5 4.626z" fill="#c41017"/></svg><svg data-name="Ebene 1" width="115" height="120" viewBox="-50 -50 115 120" x="475" y="1366" xmlns="http://www.w3.org/2000/svg"><path d="M14.815 4.444L8.148 10.37V20l6.667-6.42V4.444zM0 4.444v9.63L6.667 20v-9.63zm5.926 12.593L.741 12.593v-1.482l5.185 4.444zm0-3.7L.741 8.889V7.407l5.185 4.444zm1.481-4.448l5-4.263a5.273 5.273 0 00-5-4.626 5.273 5.273 0 00-5 4.626z" fill="#3b3c41"/></svg><svg data-name="Ebene 1" width="115" height="120" viewBox="-50 -50 115 120" x="590" y="1366" xmlns="http://www.w3.org/2000/svg"><path d="M14.815 4.444L8.148 10.37V20l6.667-6.42V4.444zM0 4.444v9.63L6.667 20v-9.63zm5.926 12.593L.741 12.593v-1.482l5.185 4.444zm0-3.7L.741 8.889V7.407l5.185 4.444zm1.481-4.448l5-4.263a5.273 5.273 0 00-5-4.626 5.273 5.273 0 00-5 4.626z" fill="#fff"/></svg><svg data-name="Ebene 1" width="105" height="109" viewBox="-50 -50 105 109" x="1646" y="1715" xmlns="http://www.w3.org/2000/svg"><path d="M.682 9A.666.666 0 01.2 8.792a.732.732 0 010-1L3.354 4.5.2 1.213a.732.732 0 010-1 .663.663 0 01.964 0L4.8 4a.732.732 0 010 1L1.164 8.792A.666.666 0 01.682 9z" fill="#c41017"/></svg><svg data-name="Ebene 1" width="105" height="109" viewBox="-50 -50 105 109" x="1845" xmlns="http://www.w3.org/2000/svg"><path d="M.682 9A.666.666 0 01.2 8.792a.732.732 0 010-1L3.354 4.5.2 1.213a.732.732 0 010-1 .663.663 0 01.964 0L4.8 4a.732.732 0 010 1L1.164 8.792A.666.666 0 01.682 9z" fill="#3b3c41"/></svg><svg data-name="Ebene 1" width="105" height="109" viewBox="-50 -50 105 109" x="1845" y="109" xmlns="http://www.w3.org/2000/svg"><path d="M.682 9A.666.666 0 01.2 8.792a.732.732 0 010-1L3.354 4.5.2 1.213a.732.732 0 010-1 .663.663 0 01.964 0L4.8 4a.732.732 0 010 1L1.164 8.792A.666.666 0 01.682 9z" fill="#fff"/></svg><svg data-name="Ebene 1" width="132" height="132" viewBox="-50 -50 132 132" x="264" y="977" xmlns="http://www.w3.org/2000/svg"><path d="M27.927 2H4.067A2.044 2.044 0 002 4.018v23.961A2.045 2.045 0 004.067 30h23.86A2.049 2.049 0 0030 27.979V4.018A2.048 2.048 0 0027.927 2zM10.3 25.859H6.151V12.5H10.3zM8.229 10.67a2.408 2.408 0 112.407-2.408 2.408 2.408 0 01-2.407 2.408zm17.63 15.189h-4.15v-6.5c0-1.549-.028-3.543-2.158-3.543-2.161 0-2.493 1.688-2.493 3.431v6.61h-4.149V12.5h3.983v1.826h.056a4.364 4.364 0 013.929-2.158c4.205 0 4.982 2.768 4.982 6.365z" fill="#c41017"/></svg><svg data-name="Ebene 1" width="132" height="132" viewBox="-50 -50 132 132" x="396" y="977" xmlns="http://www.w3.org/2000/svg"><path d="M27.927 2H4.067A2.044 2.044 0 002 4.018v23.961A2.045 2.045 0 004.067 30h23.86A2.049 2.049 0 0030 27.979V4.018A2.048 2.048 0 0027.927 2zM10.3 25.859H6.151V12.5H10.3zM8.229 10.67a2.408 2.408 0 112.407-2.408 2.408 2.408 0 01-2.407 2.408zm17.63 15.189h-4.15v-6.5c0-1.549-.028-3.543-2.158-3.543-2.161 0-2.493 1.688-2.493 3.431v6.61h-4.149V12.5h3.983v1.826h.056a4.364 4.364 0 013.929-2.158c4.205 0 4.982 2.768 4.982 6.365z" fill="#333"/></svg><svg data-name="Ebene 1" width="120" height="120" viewBox="-50 -50 120 120" x="705" y="1366" xmlns="http://www.w3.org/2000/svg"><path d="M18.52 0H1.476A1.46 1.46 0 000 1.441v17.115A1.461 1.461 0 001.476 20H18.52A1.464 1.464 0 0020 18.556V1.441A1.463 1.463 0 0018.52 0zM5.932 17.042H2.965V7.5h2.967zM4.449 6.193a1.72 1.72 0 111.719-1.72 1.72 1.72 0 01-1.719 1.72zm12.593 10.849h-2.964V12.4c0-1.107-.02-2.531-1.541-2.531-1.543 0-1.78 1.206-1.78 2.45v4.722H7.792V7.5h2.845v1.3h.04a3.117 3.117 0 012.807-1.54c3 0 3.558 1.977 3.558 4.547z" fill="#fff"/></svg><svg width="112.07" height="109" viewBox="-50 -50 112.07 109" x="994" y="1600" xmlns="http://www.w3.org/2000/svg"><path data-name="check" d="M4.1 8.823a.6.6 0 00.853 0l6.94-6.94a.6.6 0 000-.853L11.04.177a.6.6 0 00-.853 0l-5.66 5.66-2.643-2.643a.6.6 0 00-.853 0l-.854.854a.6.6 0 000 .853z" fill="#3a3e41" opacity=".9"/></svg><svg width="112.07" height="109" viewBox="-50 -50 112.07 109" x="1106.07" y="1600" xmlns="http://www.w3.org/2000/svg"><path d="M4.1 8.82a.6.6 0 00.85 0H5l6.94-6.94a.6.6 0 000-.85L11 .18a.6.6 0 00-.85 0L4.53 5.84 1.88 3.19a.6.6 0 00-.84 0H1l-.85.86a.6.6 0 000 .85z" fill="#c40f16"/></svg><svg width="110" height="110" viewBox="-50 -50 110 110" y="1715" xmlns="http://www.w3.org/2000/svg"><path data-name="plus" d="M9.286 3.929H6.071V.714A.714.714 0 005.357 0h-.714a.714.714 0 00-.714.714v3.215H.714A.714.714 0 000 4.643v.714a.714.714 0 00.714.714h3.215v3.214a.714.714 0 00.714.714h.714a.714.714 0 00.714-.714V6.071h3.215A.714.714 0 0010 5.357v-.714a.714.714 0 00-.714-.714z" fill="#3a3e41"/></svg><svg width="110" height="110" viewBox="-50 -50 110 110" x="110" y="1715" xmlns="http://www.w3.org/2000/svg"><path d="M9.29 3.93H6.07V.71A.71.71 0 005.36 0h-.72a.71.71 0 00-.71.71v3.22H.71a.71.71 0 00-.71.71v.72a.71.71 0 00.71.71h3.22v3.21a.71.71 0 00.71.72h.72a.71.71 0 00.71-.72V6.07h3.22a.71.71 0 00.71-.71v-.72a.71.71 0 00-.71-.71z" fill="#c40f16"/></svg><svg x="220" y="1715" viewBox="-50 -50 110 110" width="110" height="110" xmlns="http://www.w3.org/2000/svg"><path d="M9.5 6.5L6.9 5l2.6-1.5c.2-.1.2-.3.1-.5L9 2c-.1-.2-.3-.2-.4-.2L5.9 3.4V.3c0-.2-.1-.3-.3-.3H4.4c-.2 0-.3.1-.3.3v3.1L1.4 1.8c-.1 0-.3 0-.4.2L.4 3c-.1.1 0 .3.1.4L3.1 5 .5 6.5c-.2.1-.2.3-.1.5L1 8c.1.1.3.2.4.1L4 6.6v3.1c0 .2.1.3.3.3h1.2c.2 0 .3-.1.3-.3V6.6l2.6 1.5c.3.1.5.1.6-.1l.6-1c.1-.2.1-.4-.1-.5z" fill="#3a3e41" opacity=".9"/></svg><svg width="110" height="110" viewBox="-50 -50 110 110" x="330" y="1715" xmlns="http://www.w3.org/2000/svg"><path d="M9.5 6.5L6.9 5l2.6-1.5c.2-.1.2-.3.1-.5L9 2a.4.4 0 00-.4-.2L5.9 3.4V.3a.27.27 0 00-.3-.3H4.4a.27.27 0 00-.3.3v3.1L1.4 1.8A.4.4 0 001 2L.4 3c-.1.1 0 .3.1.4L3.1 5 .5 6.5c-.2.1-.2.3-.1.5L1 8c.1.1.3.2.4.1L4 6.6v3.1a.27.27 0 00.3.3h1.2a.27.27 0 00.3-.3V6.6l2.6 1.5c.3.1.5.1.6-.1l.6-1c.1-.2.1-.4-.1-.5z" fill="#c40f16" opacity=".9"/></svg><svg data-name="Ebene 1" width="116" height="116" viewBox="-50 -50 116 116" x="1616" y="693" xmlns="http://www.w3.org/2000/svg"><path d="M10 2a4 4 0 11-4 4 4 4 0 014-4m0-2a6 6 0 106 6 6 6 0 00-6-6zM3.793 10.793l-3.5 3.5a1 1 0 101.414 1.414l3.5-3.5L5.5 10.5z" fill="#c41017"/></svg><svg data-name="Ebene 1" width="116" height="116" viewBox="-50 -50 116 116" x="1616" y="809" xmlns="http://www.w3.org/2000/svg"><path d="M10 2a4 4 0 11-4 4 4 4 0 014-4m0-2a6 6 0 106 6 6 6 0 00-6-6zM3.793 10.793l-3.5 3.5a1 1 0 101.414 1.414l3.5-3.5L5.5 10.5z" fill="#3b3c41"/></svg><svg data-name="Ebene 1" width="116" height="116" viewBox="-50 -50 116 116" x="1616" y="925" xmlns="http://www.w3.org/2000/svg"><path d="M10 2a4 4 0 11-4 4 4 4 0 014-4m0-2a6 6 0 106 6 6 6 0 00-6-6zM3.793 10.793l-3.5 3.5a1 1 0 101.414 1.414l3.5-3.5L5.5 10.5z" fill="#c41017"/></svg><svg data-name="Ebene 1" width="116" height="116" viewBox="-50 -50 116 116" x="1616" y="1041" xmlns="http://www.w3.org/2000/svg"><path d="M10 2a4 4 0 11-4 4 4 4 0 014-4m0-2a6 6 0 106 6 6 6 0 00-6-6zM3.793 10.793l-3.5 3.5a1 1 0 101.414 1.414l3.5-3.5L5.5 10.5z" fill="#fff"/></svg><svg data-name="Ebene 1" width="120" height="120" viewBox="-50 -50 120 120" x="825" y="1366" xmlns="http://www.w3.org/2000/svg"><path fill="#fff" d="M17.778 3.636l-1.414-1.414L10 8.586 3.636 2.222 2.222 3.636 8.586 10l-6.364 6.364 1.414 1.414L10 11.414l6.364 6.364 1.414-1.414L11.414 10l6.364-6.364z"/></svg><svg data-name="Ebene 1" width="120" height="120" viewBox="-50 -50 120 120" x="945" y="1366" xmlns="http://www.w3.org/2000/svg"><path fill="#fff" d="M0 3h20v2H0zm0 6h20v2H0zm0 6h20v2H0z"/></svg><svg data-name="Ebene 1" width="109" height="106" viewBox="-50 -50 109 106" y="1825" xmlns="http://www.w3.org/2000/svg"><path fill="#c41017" d="M0 4.5L1.5 6l3-3 3 3L9 4.5 4.5 0 0 4.5z"/></svg><svg data-name="Ebene 1" width="109" height="106" viewBox="-50 -50 109 106" x="109" y="1825" xmlns="http://www.w3.org/2000/svg"><path fill="#3b3c41" d="M0 4.5L1.5 6l3-3 3 3L9 4.5 4.5 0 0 4.5z"/></svg><svg data-name="Ebene 1" width="109" height="106" viewBox="-50 -50 109 106" x="218" y="1825" xmlns="http://www.w3.org/2000/svg"><path fill="#fff" d="M0 4.5L1.5 6l3-3 3 3L9 4.5 4.5 0 0 4.5z"/></svg><svg data-name="Ebene 1" width="150" height="150" viewBox="-50 -50 150 150" x="300" y="261" xmlns="http://www.w3.org/2000/svg"><path fill="#3b3c41" d="M0 0h50v50H0z"/><path fill="#fff" d="M21.53 36.53l-1.06-1.06L30.939 25 20.47 14.53l1.06-1.06L33.061 25 21.53 36.53z"/></svg><svg data-name="Ebene 1" width="130" height="143" viewBox="-50 -50 130 143" y="556" xmlns="http://www.w3.org/2000/svg"><path fill="#3b3c41" d="M30 43H0V0h30z"/><path fill="#fff" d="M10.061 33.061l11.53-11.531L10.061 10 9 11.061 19.47 21.53 9 32l1.061 1.061z"/></svg><svg data-name="Ebene 1" width="150" height="150" viewBox="-50 -50 150 150" x="450" y="261" xmlns="http://www.w3.org/2000/svg"><path fill="#c41017" d="M0 0h50v50H0z"/><path fill="#fff" d="M21.53 36.53l-1.06-1.06L30.939 25 20.47 14.53l1.06-1.06L33.061 25 21.53 36.53z"/></svg><svg data-name="Ebene 1" width="130" height="143" viewBox="-50 -50 130 143" x="130" y="556" xmlns="http://www.w3.org/2000/svg"><path fill="#c41017" d="M30 43H0V0h30z"/><path fill="#fff" d="M10.061 33.061l11.53-11.531L10.061 10 9 11.061 19.47 21.53 9 32l1.061 1.061z"/></svg><svg data-name="Ebene 1" width="120" height="110" viewBox="-50 -50 120 110" x="1233" y="1109" xmlns="http://www.w3.org/2000/svg"><path fill="#c41017" d="M1 0v1h1v1h1v1h1v1h1v1h1v1h1v1h1v1h1v1h2V8h1V7h1V6h1V5h1V4h1V3h1V2h1V1h1V0H1z"/><path opacity=".3" d="M2 0h1v1H2zm1 1h1v1H3zm1 1h1v1H4zm1 1h1v1H5zm1 1h1v1H6zm1 1h1v1H7zm1 1h1v1H8zm1 1h1v1H9zm1 1h1v1h-1zM5 0h1v1H5zm1 1h1v1H6zm1 1h1v1H7zm1 1h1v1H8zm1 1h1v1H9zm1 1h1v1h-1zm1 1h1v1h-1zM8 0h1v1H8zm1 1h1v1H9zm1 1h1v1h-1zm1 1h1v1h-1zm1 1h1v1h-1zm1 1h1v1h-1zm-2-5h1v1h-1zm1 1h1v1h-1zm1 1h1v1h-1zm1 1h1v1h-1zm0-3h1v1h-1zm1 1h1v1h-1zm1 1h1v1h-1zm1-2h1v1h-1z" fill="#fff"/></svg><svg data-name="Ebene 1" width="120" height="110" viewBox="-50 -50 120 110" x="1065" y="1366" xmlns="http://www.w3.org/2000/svg"><path fill="#ededed" d="M1 0v1h1v1h1v1h1v1h1v1h1v1h1v1h1v1h1v1h2V8h1V7h1V6h1V5h1V4h1V3h1V2h1V1h1V0H1z"/></svg><svg data-name="Ebene 1" width="1100" height="150" viewBox="-50 -50 1100 150" xmlns="http://www.w3.org/2000/svg"><path fill="#fff" d="M0 0h1000v50H0z"/></svg><svg data-name="Ebene 1" width="150" height="150" viewBox="-50 -50 150 150" x="600" y="261" xmlns="http://www.w3.org/2000/svg"><path fill="#fff" d="M50 50H0V0h50z"/><path fill="#fff" d="M28.47 36.53L16.939 25 28.47 13.47l1.06 1.06L19.061 25 29.53 35.47l-1.06 1.06z"/><path d="M19 18h3v14h-3zm9 0h3v14h-3z" fill="#c41017"/></svg><svg data-name="Ebene 1" width="150" height="150" viewBox="-50 -50 150 150" x="750" y="261" xmlns="http://www.w3.org/2000/svg"><path fill="#fff" d="M50 50H0V0h50z"/><path d="M19 18l12 7-12 7V18m-1.5-2.612v19.224l2.256-1.312 12-7 2.221-1.3-2.221-1.3-12-7-2.256-1.312z" fill="#c41017"/></svg><svg data-name="Ebene 1" width="115" height="114" viewBox="-50 -50 115 114" x="351" y="1486" xmlns="http://www.w3.org/2000/svg"><path d="M12 4V0H3v4H0v7h3v3h9v-3h3V4zM5 1h5v3H5zm5 12H5V9h5v4zM4 7H1V6h3z" fill="#c41017"/></svg><svg data-name="Ebene 1" width="115" height="114" viewBox="-50 -50 115 114" x="466" y="1486" xmlns="http://www.w3.org/2000/svg"><path d="M12 4V0H3v4H0v7h3v3h9v-3h3V4zM5 1h5v3H5zm5 12H5V9h5v4zM4 7H1V6h3z" fill="#3b3c41"/></svg><svg data-name="Ebene 1" width="115" height="114" viewBox="-50 -50 115 114" x="581" y="1486" xmlns="http://www.w3.org/2000/svg"><path d="M12 4V0H3v4H0v7h3v3h9v-3h3V4zM5 1h5v3H5zm5 12H5V9h5v4zM4 7H1V6h3z" fill="#fff"/></svg><svg data-name="Ebene 1" width="114" height="115" viewBox="-50 -50 114 115" y="1600" xmlns="http://www.w3.org/2000/svg"><path d="M11.5 10a2.477 2.477 0 00-1.508.518L4.977 7.732C4.984 7.654 5 7.579 5 7.5s-.016-.154-.023-.232l5.015-2.786A2.492 2.492 0 109 2.5c0 .079.016.154.023.232L4.008 5.518a2.5 2.5 0 100 3.964l5.015 2.786c-.007.078-.023.152-.023.232a2.5 2.5 0 102.5-2.5z" fill="#c41017"/></svg><svg data-name="Ebene 1" width="114" height="115" viewBox="-50 -50 114 115" x="114" y="1600" xmlns="http://www.w3.org/2000/svg"><path d="M11.5 10a2.477 2.477 0 00-1.508.518L4.977 7.732C4.984 7.654 5 7.579 5 7.5s-.016-.154-.023-.232l5.015-2.786A2.492 2.492 0 109 2.5c0 .079.016.154.023.232L4.008 5.518a2.5 2.5 0 100 3.964l5.015 2.786c-.007.078-.023.152-.023.232a2.5 2.5 0 102.5-2.5z" fill="#3b3c41"/></svg><svg data-name="Ebene 1" width="114" height="115" viewBox="-50 -50 114 115" x="228" y="1600" xmlns="http://www.w3.org/2000/svg"><path d="M11.5 10a2.477 2.477 0 00-1.508.518L4.977 7.732C4.984 7.654 5 7.579 5 7.5s-.016-.154-.023-.232l5.015-2.786A2.492 2.492 0 109 2.5c0 .079.016.154.023.232L4.008 5.518a2.5 2.5 0 100 3.964l5.015 2.786c-.007.078-.023.152-.023.232a2.5 2.5 0 102.5-2.5z" fill="#fff"/></svg><svg data-name="Ebene 1" width="132" height="132" viewBox="-50 -50 132 132" x="528" y="977" xmlns="http://www.w3.org/2000/svg"><g fill="#c41017"><path d="M7.192 21.422a3.291 3.291 0 010 6.578 3.291 3.291 0 010-6.578z"/><path d="M19.433 28h-4.516A11.077 11.077 0 004 16.762V12.1A15.664 15.664 0 0119.433 28z"/><path d="M22.623 28C22.623 17.389 14.289 8.8 4 8.8V4c12.87 0 23.284 10.754 23.284 24h-4.661z"/></g></svg><svg data-name="Ebene 1" width="132" height="132" viewBox="-50 -50 132 132" x="660" y="977" xmlns="http://www.w3.org/2000/svg"><g fill="#3b3c41"><path d="M7.192 21.422a3.291 3.291 0 010 6.578 3.291 3.291 0 010-6.578z"/><path d="M19.433 28h-4.516A11.077 11.077 0 004 16.762V12.1A15.664 15.664 0 0119.433 28z"/><path d="M22.623 28C22.623 17.389 14.289 8.8 4 8.8V4c12.87 0 23.284 10.754 23.284 24h-4.661z"/></g></svg><svg data-name="Ebene 1" width="120" height="121" viewBox="-50 -50 120 121" x="609" y="1239" xmlns="http://www.w3.org/2000/svg"><g fill="#fff"><path d="M2.741 14.965a2.826 2.826 0 010 5.65 2.826 2.826 0 010-5.65z"/><path d="M13.256 20.615H9.377A9.515 9.515 0 000 10.962v-4a13.454 13.454 0 0113.256 13.653z"/><path d="M16 20.615A16.241 16.241 0 000 4.126V0c11.056 0 20 9.237 20 20.615h-4z"/></g></svg><svg data-name="Ebene 1" width="110" height="110" viewBox="-50 -50 110 110" x="440" y="1715" xmlns="http://www.w3.org/2000/svg"><path fill="#fff" d="M9.24 1.821L8.18.76 5 3.94 1.82.76.76 1.821 3.939 5 .76 8.18l1.06 1.061L5 6.061l3.18 3.18L9.24 8.18 6.061 5 9.24 1.821z"/></svg><svg data-name="Ebene 1" width="110" height="110" viewBox="-50 -50 110 110" x="550" y="1715" xmlns="http://www.w3.org/2000/svg"><path d="M1 9zm-1 1h10V0H0z" fill="#c41017" fill-rule="evenodd"/><path fill="#fff" d="M9.24 1.821L8.18.76 5 3.94 1.82.76.76 1.821 3.939 5 .76 8.18l1.06 1.061L5 6.061l3.18 3.18L9.24 8.18 6.061 5 9.24 1.821z"/></svg><svg data-name="Ebene 1" width="110" height="110" viewBox="-50 -50 110 110" x="660" y="1715" xmlns="http://www.w3.org/2000/svg"><path d="M1 9h8V1H1zm-1 1h10V0H0z" fill="#c41017" fill-rule="evenodd"/></svg><svg data-name="Ebene 1" width="110" height="110" viewBox="-50 -50 110 110" x="770" y="1715" xmlns="http://www.w3.org/2000/svg"><path d="M1 9h8V1H1zm-1 1h10V0H0z" fill="#fff" fill-rule="evenodd"/></svg><svg data-name="Ebene 1" width="106" height="115" viewBox="-50 -50 106 115" x="342" y="1600" xmlns="http://www.w3.org/2000/svg"><path d="M3 0h1v1H3zm1 1h1v1H4zm1 1h1v1H5zM3 3h1v1H3zm1 1h1v1H4zm1 1h1v1H5zM3 6h1v1H3zm1 1h1v1H4zm1 1h1v1H5zM3 9h1v1H3zm1 1h1v1H4zm1 1h1v1H5zm-2 1h1v1H3zm1 1h1v1H4zm1 1h1v1H5zm-5-2h1v1H0zm1 1h1v1H1zm1 1h1v1H2zM0 9h1v1H0zm1 1h1v1H1zm1 1h1v1H2zM0 6h1v1H0zm1 1h1v1H1zm1 1h1v1H2zM0 3h1v1H0zm1 1h1v1H1zm1 1h1v1H2zM0 0h1v1H0zm1 1h1v1H1zm1 1h1v1H2z" fill="#ccc"/></svg><svg data-name="Ebene 1" width="115" height="112" viewBox="-50 -50 115 112" x="696" y="1486" xmlns="http://www.w3.org/2000/svg"><path d="M15 4.508H0v1.475h.405a.88.88 0 01.786.494l2.715 5.648h7.2l2.707-5.64a.874.874 0 01.786-.5H15zm-2.569 1.475l-2.237 4.667h-5.38L2.569 5.983zm-2.026-2.391h1.8L8.849.188a.631.631 0 00-.9 0 .651.651 0 000 .916zm-7.609 0L6.151.188a.631.631 0 01.9 0 .651.651 0 010 .916L4.595 3.592zm6.977 5.737a.454.454 0 11-.908 0V7.247a.454.454 0 11.908 0zm-1.783 0a.454.454 0 11-.908 0V7.247a.454.454 0 11.908 0zm-1.783 0a.454.454 0 11-.908 0V7.247a.454.454 0 11.908 0z" fill="#c41017" fill-rule="evenodd"/></svg><svg data-name="Ebene 1" width="120" height="116" viewBox="-50 -50 120 116" x="1496" xmlns="http://www.w3.org/2000/svg"><path d="M20 6.01H0v1.967h.54a1.174 1.174 0 011.048.659l3.62 7.531H14.8l3.609-7.52a1.165 1.165 0 011.048-.67H20zm-3.425 1.967L13.593 14.2H6.418L3.425 7.977zm-2.7-3.187h2.4L11.8.251a.841.841 0 00-1.2 0 .867.867 0 000 1.221zm-10.146 0L8.2.251a.841.841 0 011.2 0 .867.867 0 010 1.221L6.126 4.789zm9.482 7.6a.605.605 0 11-1.21 0V9.616a.605.605 0 111.21 0zm-2.5 0a.605.605 0 11-1.21 0V9.616a.605.605 0 111.21 0zm-2.5 0a.605.605 0 11-1.21 0V9.616a.605.605 0 111.21 0z" fill="#c41017" fill-rule="evenodd"/></svg><svg data-name="Ebene 1" width="115" height="112" viewBox="-50 -50 115 112" x="811" y="1486" xmlns="http://www.w3.org/2000/svg"><path d="M15 4.508H0v1.475h.405a.88.88 0 01.786.494l2.715 5.648h7.2l2.707-5.64a.874.874 0 01.786-.5H15zm-2.569 1.475l-2.237 4.667h-5.38L2.569 5.983zm-2.026-2.391h1.8L8.849.188a.631.631 0 00-.9 0 .651.651 0 000 .916zm-7.609 0L6.151.188a.631.631 0 01.9 0 .651.651 0 010 .916L4.595 3.592zm6.977 5.737a.454.454 0 11-.908 0V7.247a.454.454 0 11.908 0zm-1.783 0a.454.454 0 11-.908 0V7.247a.454.454 0 11.908 0zm-1.783 0a.454.454 0 11-.908 0V7.247a.454.454 0 11.908 0z" fill="#3b3c41" fill-rule="evenodd"/></svg><svg data-name="Ebene 1" width="120" height="116" viewBox="-50 -50 120 116" x="1496" y="116" xmlns="http://www.w3.org/2000/svg"><path d="M20 6.01H0v1.967h.54a1.174 1.174 0 011.048.659l3.62 7.531H14.8l3.609-7.52a1.165 1.165 0 011.048-.67H20zm-3.425 1.967L13.593 14.2H6.418L3.425 7.977zm-2.7-3.187h2.4L11.8.251a.841.841 0 00-1.2 0 .867.867 0 000 1.221zm-10.146 0L8.2.251a.841.841 0 011.2 0 .867.867 0 010 1.221L6.126 4.789zm9.482 7.6a.605.605 0 11-1.21 0V9.616a.605.605 0 111.21 0zm-2.5 0a.605.605 0 11-1.21 0V9.616a.605.605 0 111.21 0zm-2.5 0a.605.605 0 11-1.21 0V9.616a.605.605 0 111.21 0z" fill="#3b3c41" fill-rule="evenodd"/></svg><svg data-name="Ebene 1" width="120" height="116" viewBox="-50 -50 120 116" x="1496" y="232" xmlns="http://www.w3.org/2000/svg"><path d="M20 6.01H0v1.967h.54a1.174 1.174 0 011.048.659l3.62 7.531H14.8l3.609-7.52a1.165 1.165 0 011.048-.67H20zm-3.425 1.967L13.593 14.2H6.418L3.425 7.977zm-2.7-3.187h2.4L11.8.251a.841.841 0 00-1.2 0 .867.867 0 000 1.221zm-10.146 0L8.2.251a.841.841 0 011.2 0 .867.867 0 010 1.221L6.126 4.789zm9.482 7.6a.605.605 0 11-1.21 0V9.616a.605.605 0 111.21 0zm-2.5 0a.605.605 0 11-1.21 0V9.616a.605.605 0 111.21 0zm-2.5 0a.605.605 0 11-1.21 0V9.616a.605.605 0 111.21 0z" fill="#fff" fill-rule="evenodd"/></svg><svg data-name="Ebene 1" width="130" height="130" viewBox="-50 -50 130 130" x="1236" y="916" xmlns="http://www.w3.org/2000/svg"><path fill="#c41017" d="M0 30V0h30v30z"/><path fill="#fff" d="M21.07 17.93L15 11.861 8.93 17.93l-1.06-1.06L15 9.739l7.13 7.131-1.06 1.06z"/></svg><svg data-name="Ebene 1" width="130" height="130" viewBox="-50 -50 130 130" y="1109" xmlns="http://www.w3.org/2000/svg"><path fill="#3b3c41" d="M0 30V0h30v30z"/><path fill="#fff" d="M21.07 17.93L15 11.861 8.93 17.93l-1.06-1.06L15 9.739l7.13 7.131-1.06 1.06z"/></svg><svg data-name="Ebene 1" width="123" height="124" viewBox="-50 -50 123 124" x="1368" y="507" xmlns="http://www.w3.org/2000/svg"><path d="M5.5 10.5a5 5 0 010-10h12a5 5 0 010 10z" fill="#fff"/><path d="M17.5 1a4.5 4.5 0 010 9h-12a4.5 4.5 0 010-9h12m0-1h-12a5.5 5.5 0 000 11h12a5.5 5.5 0 000-11z" fill="#3b3c41"/><circle cx="5.5" cy="5.5" r="5" fill="#fff"/><path d="M5.5 1A4.5 4.5 0 111 5.5 4.5 4.5 0 015.5 1m0-1A5.5 5.5 0 1011 5.5 5.506 5.506 0 005.5 0z" fill="#3b3c41"/><path d="M5.5 22.5a5 5 0 010-10h12a5 5 0 010 10z" fill="#fff"/><path d="M17.5 13a4.5 4.5 0 010 9h-12a4.5 4.5 0 010-9h12m0-1h-12a5.5 5.5 0 000 11h12a5.5 5.5 0 000-11z" fill="#c41017"/><circle cx="17.5" cy="17.5" r="4" fill="#c41017"/><path d="M17.5 14a3.5 3.5 0 11-3.5 3.5 3.5 3.5 0 013.5-3.5m0-1a4.5 4.5 0 104.5 4.5 4.5 4.5 0 00-4.5-4.5z" fill="#fff"/><path d="M17.5 13a4.5 4.5 0 11-4.5 4.5 4.5 4.5 0 014.5-4.5m0-1a5.5 5.5 0 105.5 5.5 5.506 5.506 0 00-5.5-5.5z" fill="#c41017"/></svg><svg data-name="Ebene 1" width="109" height="106" viewBox="-50 -50 109 106" x="327" y="1825" xmlns="http://www.w3.org/2000/svg"><path fill="#c41017" d="M0 1.5L1.5 0l3 3 3-3L9 1.5 4.5 6 0 1.5z"/></svg><svg data-name="Ebene 1" width="109" height="106" viewBox="-50 -50 109 106" x="436" y="1825" xmlns="http://www.w3.org/2000/svg"><path fill="#3b3c41" d="M0 1.5L1.5 0l3 3 3-3L9 1.5 4.5 6 0 1.5z"/></svg><svg data-name="Ebene 1" width="109" height="106" viewBox="-50 -50 109 106" x="545" y="1825" xmlns="http://www.w3.org/2000/svg"><path fill="#c41017" d="M0 4.5L1.5 6l3-3 3 3L9 4.5 4.5 0 0 4.5z"/></svg><svg data-name="Ebene 1" width="109" height="106" viewBox="-50 -50 109 106" x="654" y="1825" xmlns="http://www.w3.org/2000/svg"><path fill="#3b3c41" d="M0 4.5L1.5 6l3-3 3 3L9 4.5 4.5 0 0 4.5z"/></svg><svg data-name="Ebene 1" width="110" height="110" viewBox="-50 -50 110 110" x="880" y="1715" xmlns="http://www.w3.org/2000/svg"><path fill="#c41017" d="M5 4.343L7.657 7l.707-.707L5 2.929 1.636 6.293 2.343 7 5 4.343z"/></svg><svg data-name="Ebene 1" width="110" height="110" viewBox="-50 -50 110 110" x="990" y="1715" xmlns="http://www.w3.org/2000/svg"><path fill="#fff" d="M5 4.343L7.657 7l.707-.707L5 2.929 1.636 6.293 2.343 7 5 4.343z"/></svg><svg data-name="Ebene 1" width="110" height="110" viewBox="-50 -50 110 110" x="1100" y="1715" xmlns="http://www.w3.org/2000/svg"><path fill="#c41017" d="M5 8.586L2.343 5.929l-.707.707L5 10l3.364-3.364-.707-.707L5 8.586zm2.657-4.657l.707-.707L5-.142 1.636 3.222l.707.707L5 1.272l2.657 2.657z"/></svg><svg data-name="Ebene 1" width="110" height="110" viewBox="-50 -50 110 110" x="1210" y="1715" xmlns="http://www.w3.org/2000/svg"><path fill="#fff" d="M5 8.586L2.343 5.929l-.707.707L5 10l3.364-3.364-.707-.707L5 8.586zm2.657-4.657l.707-.707L5-.142 1.636 3.222l.707.707L5 1.272l2.657 2.657z"/></svg><svg data-name="Ebene 1" width="110" height="110" viewBox="-50 -50 110 110" x="1320" y="1715" xmlns="http://www.w3.org/2000/svg"><path fill="#c41017" d="M5 5.586L2.343 2.929l-.707.707L5 7l3.364-3.364-.707-.707L5 5.586z"/></svg><svg data-name="Ebene 1" width="110" height="110" viewBox="-50 -50 110 110" x="1430" y="1715" xmlns="http://www.w3.org/2000/svg"><path fill="#fff" d="M5 5.586L2.343 2.929l-.707.707L5 7l3.364-3.364-.707-.707L5 5.586z"/></svg><svg data-name="Ebene 1" width="113" height="125" viewBox="-50 -50 113 125" x="1368" y="382" xmlns="http://www.w3.org/2000/svg"><path fill="#c41017" d="M13 0L0 12.5 13 25V0z"/></svg><svg data-name="Ebene 1" width="109" height="106" viewBox="-50 -50 109 106" x="763" y="1825" xmlns="http://www.w3.org/2000/svg"><path fill="#c41017" d="M0 1.5L1.5 0l3 3 3-3L9 1.5 4.5 6 0 1.5z"/></svg><svg data-name="Ebene 1" width="109" height="106" viewBox="-50 -50 109 106" x="872" y="1825" xmlns="http://www.w3.org/2000/svg"><path fill="#3b3c41" d="M0 1.5L1.5 0l3 3 3-3L9 1.5 4.5 6 0 1.5z"/></svg><svg data-name="Ebene 1" width="132" height="132" viewBox="-50 -50 132 132" x="792" y="977" xmlns="http://www.w3.org/2000/svg"><path d="M30 7.678a11.473 11.473 0 01-3.3.908 5.856 5.856 0 002.525-3.163 11.823 11.823 0 01-3.646 1.392 5.748 5.748 0 00-9.94 3.9 5.25 5.25 0 00.152 1.3A16.318 16.318 0 013.95 6.045a5.822 5.822 0 00-.771 2.874 5.722 5.722 0 002.557 4.765 5.62 5.62 0 01-2.6-.726v.075a5.739 5.739 0 004.6 5.612 6.214 6.214 0 01-1.514.2 6.2 6.2 0 01-1.071-.105A5.72 5.72 0 0010.5 22.7a11.441 11.441 0 01-7.123 2.449c-.471 0-.926-.029-1.378-.074a16.346 16.346 0 008.8 2.555 16.168 16.168 0 0016.342-16.246c0-.257 0-.5-.016-.742A11.342 11.342 0 0030 7.678z" fill="#c41017"/></svg><svg data-name="Ebene 1" width="132" height="132" viewBox="-50 -50 132 132" x="924" y="977" xmlns="http://www.w3.org/2000/svg"><path d="M30 7.678a11.473 11.473 0 01-3.3.908 5.856 5.856 0 002.525-3.163 11.823 11.823 0 01-3.646 1.392 5.748 5.748 0 00-9.94 3.9 5.25 5.25 0 00.152 1.3A16.318 16.318 0 013.95 6.045a5.822 5.822 0 00-.771 2.874 5.722 5.722 0 002.557 4.765 5.62 5.62 0 01-2.6-.726v.075a5.739 5.739 0 004.6 5.612 6.214 6.214 0 01-1.514.2 6.2 6.2 0 01-1.071-.105A5.72 5.72 0 0010.5 22.7a11.441 11.441 0 01-7.123 2.449c-.471 0-.926-.029-1.378-.074a16.346 16.346 0 008.8 2.555 16.168 16.168 0 0016.342-16.246c0-.257 0-.5-.016-.742A11.342 11.342 0 0030 7.678z" fill="#3b3c41"/></svg><svg data-name="Ebene 1" width="120" height="117" viewBox="-50 -50 120 117" x="1496" y="348" xmlns="http://www.w3.org/2000/svg"><path d="M20 1.913a8.2 8.2 0 01-2.354.648A4.183 4.183 0 0019.449.3a8.445 8.445 0 01-2.6.994 4.106 4.106 0 00-7.1 2.787 3.75 3.75 0 00.109.93A11.656 11.656 0 011.393.746 4.158 4.158 0 00.842 2.8a4.087 4.087 0 001.826 3.4 4.014 4.014 0 01-1.857-.516v.054a4.1 4.1 0 003.283 4.008 4.439 4.439 0 01-1.082.141 4.426 4.426 0 01-.765-.075 4.086 4.086 0 003.824 2.831 8.172 8.172 0 01-5.088 1.75c-.337 0-.661-.021-.984-.053a11.675 11.675 0 006.289 1.825A11.548 11.548 0 0017.958 4.56c0-.184 0-.357-.012-.53A8.1 8.1 0 0020 1.913z" fill="#fff"/></svg><svg data-name="Ebene 1" width="150" height="150" viewBox="-50 -50 150 150" x="900" y="261" xmlns="http://www.w3.org/2000/svg"><path fill="#c41017" opacity=".8" d="M0 0h50v50H0z"/><path d="M19 36.75a.75.75 0 01-.75-.75V14a.75.75 0 011.175-.618l16 11a.75.75 0 010 1.236l-16 11a.75.75 0 01-.425.132zm.75-21.324v19.148L33.676 25z" fill="#fff"/></svg><svg data-name="Ebene 1" width="132" height="132" viewBox="-50 -50 132 132" x="1056" y="977" xmlns="http://www.w3.org/2000/svg"><path d="M6.15 7.481a.614.614 0 00-.546.25.62.62 0 00.023.614l2.706 4.684a.021.021 0 010 .023l-4.252 7.5a.62.62 0 000 .614.59.59 0 00.523.273h4a1.223 1.223 0 001.096-.77l4.32-7.64-2.751-4.8a1.237 1.237 0 00-1.114-.751h-4zM22.963 2a1.173 1.173 0 00-1.072.762l-8.905 15.792 5.686 10.432a1.252 1.252 0 001.118.762h4a.591.591 0 00.531-.256.623.623 0 00-.008-.619l-5.644-10.307a.023.023 0 010-.026l8.86-15.667a.627.627 0 00.008-.618.594.594 0 00-.532-.255h-4.042z" fill="#c41017"/></svg><svg data-name="Ebene 1" width="132" height="132" viewBox="-50 -50 132 132" x="1236" xmlns="http://www.w3.org/2000/svg"><path d="M6.15 7.481a.614.614 0 00-.546.25.62.62 0 00.023.614l2.706 4.684a.021.021 0 010 .023l-4.252 7.5a.62.62 0 000 .614.59.59 0 00.523.273h4a1.223 1.223 0 001.096-.77l4.32-7.64-2.751-4.8a1.237 1.237 0 00-1.114-.751h-4zM22.963 2a1.173 1.173 0 00-1.072.762l-8.905 15.792 5.686 10.432a1.252 1.252 0 001.118.762h4a.591.591 0 00.531-.256.623.623 0 00-.008-.619l-5.644-10.307a.023.023 0 010-.026l8.86-15.667a.627.627 0 00.008-.618.594.594 0 00-.532-.255h-4.042z" fill="#3b3c41"/></svg><svg data-name="Ebene 1" width="119" height="122" viewBox="-50 -50 119 122" x="368" y="1239" xmlns="http://www.w3.org/2000/svg"><path d="M1.7 4.345a.486.486 0 00-.433.2.492.492 0 00.018.487l2.151 3.712a.016.016 0 010 .018L.064 14.711a.491.491 0 000 .487.467.467 0 00.415.216h3.173a.97.97 0 00.865-.613l3.426-6.057-2.181-3.8a.98.98 0 00-.883-.6H1.7zM15.035 0a.93.93 0 00-.85.6S7.35 12.727 7.124 13.125l4.509 8.275a.993.993 0 00.887.6h3.169a.468.468 0 00.421-.2.494.494 0 00-.006-.49l-4.474-8.176a.018.018 0 010-.021L18.655.692A.5.5 0 0018.661.2a.471.471 0 00-.421-.2h-3.2z" fill="#fff"/></svg><svg data-name="Ebene 1" width="120" height="123" viewBox="-50 -50 120 123" x="128" y="1239" xmlns="http://www.w3.org/2000/svg"><path d="M19.8 7.035A4.327 4.327 0 0019 5.05a2.861 2.861 0 00-2-.85C14.2 4 10 4 10 4s-4.2 0-7 .2a2.861 2.861 0 00-2 .847 4.325 4.325 0 00-.8 1.988 30.247 30.247 0 00-.2 3.237v1.517a30.247 30.247 0 00.2 3.237 4.325 4.325 0 00.795 1.985 3.392 3.392 0 002.205.855c1.6.153 6.8.2 6.8.2s4.2-.006 7-.209a2.861 2.861 0 002-.847 4.327 4.327 0 00.8-1.985 30.292 30.292 0 00.2-3.237v-1.516a30.292 30.292 0 00-.2-3.237zM7.935 13.628v-5.62l5.4 2.82z" fill="#fff"/></svg><svg data-name="Ebene 1" width="132" height="132" viewBox="-50 -50 132 132" x="1236" y="132" xmlns="http://www.w3.org/2000/svg"><path d="M31.68 9.855a6.923 6.923 0 00-1.272-3.176A4.577 4.577 0 0027.2 5.324C22.724 5 16.007 5 16.007 5h-.014S9.276 5 4.8 5.324a4.578 4.578 0 00-3.208 1.355A6.921 6.921 0 00.32 9.855 48.4 48.4 0 000 15.034v2.428a48.4 48.4 0 00.32 5.179 6.921 6.921 0 001.272 3.176 5.426 5.426 0 003.528 1.368c2.56.245 10.88.321 10.88.321s6.724-.01 11.2-.334a4.577 4.577 0 003.206-1.355 6.923 6.923 0 001.272-3.176A48.46 48.46 0 0032 17.462v-2.428a48.462 48.462 0 00-.32-5.179zM12.7 20.4v-8.991l8.647 4.511z" fill="#c41017"/></svg><svg data-name="Ebene 1" width="132" height="132" viewBox="-50 -50 132 132" x="1236" y="264" xmlns="http://www.w3.org/2000/svg"><path d="M31.68 9.855a6.923 6.923 0 00-1.272-3.176A4.577 4.577 0 0027.2 5.324C22.724 5 16.007 5 16.007 5h-.014S9.276 5 4.8 5.324a4.578 4.578 0 00-3.208 1.355A6.921 6.921 0 00.32 9.855 48.4 48.4 0 000 15.034v2.428a48.4 48.4 0 00.32 5.179 6.921 6.921 0 001.272 3.176 5.426 5.426 0 003.528 1.368c2.56.245 10.88.321 10.88.321s6.724-.01 11.2-.334a4.577 4.577 0 003.206-1.355 6.923 6.923 0 001.272-3.176A48.46 48.46 0 0032 17.462v-2.428a48.462 48.462 0 00-.32-5.179zM12.7 20.4v-8.991l8.647 4.511z" fill="#333"/></svg><svg data-name="Ebene 1" width="120" height="120" viewBox="-50 -50 120 120" x="1496" y="465" xmlns="http://www.w3.org/2000/svg"><path d="M18.9 0H1.1A1.1 1.1 0 000 1.1v17.8A1.1 1.1 0 001.1 20h9.579v-7.745H8.076V9.237h2.606V7.011a3.637 3.637 0 013.882-3.99 21.388 21.388 0 012.329.119v2.7H15.3c-1.253 0-1.5.6-1.5 1.469v1.928h2.989l-.389 3.018h-2.6V20h5.1a1.1 1.1 0 001.1-1.1V1.1A1.1 1.1 0 0018.9 0z" fill="#fff"/></svg><svg data-name="Ebene 1" width="122" height="122" viewBox="-50 -50 122 122" x="487" y="1239" xmlns="http://www.w3.org/2000/svg"><path d="M19.5 2a.5.5 0 01.5.5v17a.5.5 0 01-.5.5h-17a.5.5 0 01-.5-.5v-17a.5.5 0 01.5-.5h17m0-2h-17A2.5 2.5 0 000 2.5v17A2.5 2.5 0 002.5 22h17a2.5 2.5 0 002.5-2.5v-17A2.5 2.5 0 0019.5 0z" fill="#fff"/><circle cx="7" cy="11" r="3" fill="#fff"/><circle cx="15" cy="11" r="3" fill="#fff"/></svg><svg data-name="Ebene 1" width="120" height="121" viewBox="-50 -50 120 121" x="729" y="1239" xmlns="http://www.w3.org/2000/svg"><path d="M10.546 21c-2.337 0-5.4-3.04-6.565-4.443S1.2 13.641.865 13.152c-.674-.983-.918-1.307-.855-1.885.131-1.22 2.483-1.008 3.86.395 1.177 1.2 2.817 1.4 2.817-.132S4.516 5 4.2 3.77s.17-2.17.8-2.301 1.565.438 2.3 2.367 2.14 5.787 2.119 3.836-.063-5.283-.083-5.546S9.273 0 10.671 0s1.377 1.249 1.377 1.819-.083 6.554.334 5.984 1.854-4.461 2.134-5.1a1.2 1.2 0 011.81-.581c.584.351.689 1.315-.042 3.135s-1.565 4.245-1.231 4.223S17.6 6.839 18.1 6.335s1.335-.811 1.732-.132.063 1.622-.647 2.543a14.227 14.227 0 00-2.685 4.187 43.093 43.093 0 00-.835 4.618C15.185 19.7 14.7 21 10.546 21z" fill="#003f97"/></svg><svg data-name="Ebene 1" width="120" height="121" viewBox="-50 -50 120 121" x="849" y="1239" xmlns="http://www.w3.org/2000/svg"><path d="M10.546 21c-2.337 0-5.4-3.04-6.565-4.443S1.2 13.641.865 13.152c-.674-.983-.918-1.307-.855-1.885.131-1.22 2.483-1.008 3.86.395 1.177 1.2 2.817 1.4 2.817-.132S4.516 5 4.2 3.77s.17-2.17.8-2.301 1.565.438 2.3 2.367 2.14 5.787 2.119 3.836-.063-5.283-.083-5.546S9.273 0 10.671 0s1.377 1.249 1.377 1.819-.083 6.554.334 5.984 1.854-4.461 2.134-5.1a1.2 1.2 0 011.81-.581c.584.351.689 1.315-.042 3.135s-1.565 4.245-1.231 4.223S17.6 6.839 18.1 6.335s1.335-.811 1.732-.132.063 1.622-.647 2.543a14.227 14.227 0 00-2.685 4.187 43.093 43.093 0 00-.835 4.618C15.185 19.7 14.7 21 10.546 21z" fill="#fff"/></svg><svg data-name="Ebene 1" width="120" height="120" viewBox="-50 -50 120 120" x="1496" y="585" xmlns="http://www.w3.org/2000/svg"><path d="M.017 10.035a6.337 6.337 0 016.335-6.03A6.437 6.437 0 0110.6 5.573a22.613 22.613 0 01-1.61 1.668 4.19 4.19 0 00-4.94-.13 4.067 4.067 0 00-.173 6.339c1.932 1.753 5.583.883 6.117-1.8-1.21-.018-2.423 0-3.633-.039 0-.722-.006-1.444 0-2.165 2.023-.006 4.046-.009 6.072.006a7.281 7.281 0 01-1.146 4.91 6.269 6.269 0 01-7.227 1.92 6.356 6.356 0 01-4.043-6.247zM16.37 7.62h1.8c0 .6.006 1.21.012 1.814.6.006 1.21.006 1.814.012v1.8c-.6.006-1.207.009-1.814.015q-.009.91-.012 1.814h-1.803c-.006-.6-.006-1.207-.012-1.811l-1.814-.018v-1.8q.905-.009 1.814-.012.004-.91.015-1.814z" fill="#fff"/></svg><svg data-name="Ebene 1" width="120" height="127" viewBox="-50 -50 120 127" x="1368" y="128" xmlns="http://www.w3.org/2000/svg"><path fill="#003f97" d="M20 6l-9 8v13l9-8.667V6zM0 6v13l9 8V14zm8 17l-7-6v-2l7 6zm0-5l-7-6v-2l7 6zm2-6l6.755-5.755A7.118 7.118 0 0010 0a7.118 7.118 0 00-6.755 6.245z"/></svg><svg data-name="Ebene 1" width="120" height="127" viewBox="-50 -50 120 127" x="1368" y="255" xmlns="http://www.w3.org/2000/svg"><path fill="#fff" d="M20 6l-9 8v13l9-8.667V6zM0 6v13l9 8V14zm8 17l-7-6v-2l7 6zm0-5l-7-6v-2l7 6zm2-6l6.755-5.755A7.118 7.118 0 0010 0a7.118 7.118 0 00-6.755 6.245z"/></svg><svg data-name="Ebene 1" width="120" height="120" viewBox="-50 -50 120 120" x="1496" y="705" xmlns="http://www.w3.org/2000/svg"><path d="M10.969.065a7.969 7.969 0 00-5.619 12.3L.4 17.32a1.266 1.266 0 00-.383 1.074 1.7 1.7 0 002.883 1.12l4.822-4.822A7.97 7.97 0 1010.969.065zM12 13.286a5.314 5.314 0 115.314-5.314A5.314 5.314 0 0112 13.286z" fill="#fff"/></svg><svg data-name="Ebene 1" width="120" height="120" viewBox="-50 -50 120 120" x="1496" y="825" xmlns="http://www.w3.org/2000/svg"><path fill="#fff" d="M0 3h20v2H0zm0 6h20v2H0zm0 6h20v2H0z"/></svg><svg data-name="Ebene 1" width="120" height="121" viewBox="-50 -50 120 121" x="969" y="1239" xmlns="http://www.w3.org/2000/svg"><g fill="#fff"><path d="M2.741 14.965a2.826 2.826 0 010 5.65 2.826 2.826 0 010-5.65z"/><path d="M13.256 20.615H9.377A9.515 9.515 0 000 10.962v-4a13.454 13.454 0 0113.256 13.653z"/><path d="M16 20.615A16.241 16.241 0 000 4.126V0c11.056 0 20 9.237 20 20.615h-4z"/></g></svg><svg data-name="Ebene 1" width="120" height="117" viewBox="-50 -50 120 117" x="1496" y="945" xmlns="http://www.w3.org/2000/svg"><path d="M20 1.913a8.2 8.2 0 01-2.354.648A4.183 4.183 0 0019.449.3a8.445 8.445 0 01-2.6.994 4.106 4.106 0 00-7.1 2.787 3.75 3.75 0 00.109.93A11.656 11.656 0 011.393.746 4.158 4.158 0 00.842 2.8a4.087 4.087 0 001.826 3.4 4.014 4.014 0 01-1.857-.516v.054a4.1 4.1 0 003.283 4.008 4.439 4.439 0 01-1.082.141 4.426 4.426 0 01-.765-.075 4.086 4.086 0 003.824 2.831 8.172 8.172 0 01-5.088 1.75c-.337 0-.661-.021-.984-.053a11.675 11.675 0 006.289 1.825A11.548 11.548 0 0017.958 4.56c0-.184 0-.357-.012-.53A8.1 8.1 0 0020 1.913z" fill="#fff"/></svg><svg data-name="Ebene 1" width="120" height="123" viewBox="-50 -50 120 123" x="248" y="1239" xmlns="http://www.w3.org/2000/svg"><path d="M19.8 7.035A4.327 4.327 0 0019 5.05a2.861 2.861 0 00-2-.85C14.2 4 10 4 10 4s-4.2 0-7 .2a2.861 2.861 0 00-2 .847 4.325 4.325 0 00-.8 1.988 30.247 30.247 0 00-.2 3.237v1.517a30.247 30.247 0 00.2 3.237 4.325 4.325 0 00.795 1.985 3.392 3.392 0 002.205.855c1.6.153 6.8.2 6.8.2s4.2-.006 7-.209a2.861 2.861 0 002-.847 4.327 4.327 0 00.8-1.985 30.292 30.292 0 00.2-3.237v-1.516a30.292 30.292 0 00-.2-3.237zM7.935 13.628v-5.62l5.4 2.82z" fill="#fff"/></svg><svg data-name="Ebene 1" width="122" height="112" viewBox="-50 -50 122 112" x="629" y="1109" xmlns="http://www.w3.org/2000/svg"><path fill="#003f97" d="M22 0h-1.282L11 9.521 1.282 0H0v1.241L11 12 22 1.241V0z"/></svg><svg data-name="Ebene 1" width="114" height="108" viewBox="-50 -50 114 108" x="926" y="1486" xmlns="http://www.w3.org/2000/svg"><path fill="#003f97" d="M14 0h-1.282L7 5.521 1.282 0H0v1.241L7 8l7-6.759V0z"/></svg><svg data-name="Ebene 1" width="114" height="108" viewBox="-50 -50 114 108" x="1040" y="1486" xmlns="http://www.w3.org/2000/svg"><path fill="#333" d="M14 0h-1.282L7 5.521 1.282 0H0v1.241L7 8l7-6.759V0z"/></svg><svg data-name="Ebene 1" width="118" height="110" viewBox="-50 -50 118 110" x="1185" y="1366" xmlns="http://www.w3.org/2000/svg"><path fill="#fff" d="M18 0h-1.282L9 7.521 1.282 0H0v1.241L9 10l9-8.759V0z"/></svg><svg data-name="Ebene 1" width="114" height="108" viewBox="-50 -50 114 108" x="1154" y="1486" xmlns="http://www.w3.org/2000/svg"><path fill="#fff" d="M14 0h-1.282L7 5.521 1.282 0H0v1.241L7 8l7-6.759V0z"/></svg><svg data-name="Ebene 1" width="122" height="112" viewBox="-50 -50 122 112" x="751" y="1109" xmlns="http://www.w3.org/2000/svg"><path fill="#003f97" d="M22 12h-1.282L11 2.479 1.282 12H0v-1.241L11 0l11 10.759V12z"/></svg><svg data-name="Ebene 1" width="114" height="108" viewBox="-50 -50 114 108" x="1268" y="1486" xmlns="http://www.w3.org/2000/svg"><path fill="#003f97" d="M14 8h-1.282L7 2.479 1.282 8H0V6.759L7 0l7 6.759V8z"/></svg><svg data-name="Ebene 1" width="114" height="108" viewBox="-50 -50 114 108" x="1382" y="1486" xmlns="http://www.w3.org/2000/svg"><path fill="#333" d="M14 8h-1.282L7 2.479 1.282 8H0V6.759L7 0l7 6.759V8z"/></svg><svg data-name="Ebene 1" width="118" height="110" viewBox="-50 -50 118 110" x="1303" y="1366" xmlns="http://www.w3.org/2000/svg"><path fill="#fff" d="M18 10h-1.282L9 2.479 1.282 10H0V8.759L9 0l9 8.759V10z"/></svg><svg data-name="Ebene 1" width="114" height="108" viewBox="-50 -50 114 108" x="1496" y="1486" xmlns="http://www.w3.org/2000/svg"><path fill="#fff" d="M14 8h-1.282L7 2.479 1.282 8H0V6.759L7 0l7 6.759V8z"/></svg><svg data-name="Ebene 1" width="106" height="109" viewBox="-50 -50 106 109" x="1950" xmlns="http://www.w3.org/2000/svg"><path fill="#fff" d="M1.5 9L0 7.5l3-3-3-3L1.5 0 6 4.5 1.5 9z"/></svg><svg data-name="Ebene 1" width="132" height="132" viewBox="-50 -50 132 132" x="1236" y="396" xmlns="http://www.w3.org/2000/svg"><path d="M16 0a16 16 0 1016 16A16 16 0 0016 0zm7.814 20.986l-2.828 2.828L16 18.828l-4.986 4.986-2.828-2.828L13.172 16l-4.986-4.986 2.828-2.828L16 13.172l4.986-4.986 2.828 2.828L18.828 16z" fill="#333"/></svg><svg data-name="Ebene 1" width="132" height="128" viewBox="-50 -50 132 128" x="1236" y="528" xmlns="http://www.w3.org/2000/svg"><path d="M32 9H21V0H0v28h21v-7h11zM18 25H3V3h15v6H7v12h11z" fill="#003f97" fill-rule="evenodd"/><path d="M9 18.722v-7.59h1.562a7.461 7.461 0 011.853.2 3.219 3.219 0 011.3.638 2.59 2.59 0 01.759 1.122 4.905 4.905 0 01.247 1.656 4.917 4.917 0 01-.292 1.776 3.109 3.109 0 01-.841 1.238 3.522 3.522 0 01-1.347.72 6.362 6.362 0 01-1.81.237zm.957-6.765V17.9h.473a5.073 5.073 0 001.4-.176 2.509 2.509 0 001.023-.556 2.4 2.4 0 00.627-.974 4.262 4.262 0 00.214-1.441 3.71 3.71 0 00-.2-1.315 2.048 2.048 0 00-.6-.863 2.4 2.4 0 00-.984-.473 5.739 5.739 0 00-1.347-.143zm12.892 2.97a5.2 5.2 0 01-.253 1.7 3.534 3.534 0 01-.7 1.227 2.885 2.885 0 01-1.061.748 3.5 3.5 0 01-1.342.253 3.447 3.447 0 01-1.342-.253 2.806 2.806 0 01-1.039-.748 3.493 3.493 0 01-.677-1.227 5.413 5.413 0 01-.242-1.7 5.2 5.2 0 01.253-1.7 3.534 3.534 0 01.7-1.227 2.885 2.885 0 011.062-.748A3.528 3.528 0 0119.56 11a3.417 3.417 0 011.331.253A2.81 2.81 0 0121.93 12a3.5 3.5 0 01.677 1.227 5.42 5.42 0 01.242 1.7zm-1.023 0a3.7 3.7 0 00-.616-2.321 2.216 2.216 0 00-3.377 0 3.7 3.7 0 00-.616 2.321 3.71 3.71 0 00.616 2.3 2.186 2.186 0 003.377 0 3.71 3.71 0 00.616-2.3zm2.486 0a4.618 4.618 0 01.313-1.8 3.5 3.5 0 01.82-1.216 3.179 3.179 0 011.144-.693 3.957 3.957 0 011.3-.22 3.2 3.2 0 01.77.082 3.032 3.032 0 01.561.193 2.329 2.329 0 01.38.22q.148.11.214.165l-.352.748a1.922 1.922 0 00-.528-.357 2.562 2.562 0 00-.456-.159 2.387 2.387 0 00-.589-.066 2.856 2.856 0 00-.968.165 2.11 2.11 0 00-.814.528 2.6 2.6 0 00-.561.94 4.139 4.139 0 00-.209 1.4 5.561 5.561 0 00.165 1.458 2.6 2.6 0 00.479.979 1.848 1.848 0 00.764.555 2.8 2.8 0 001.023.176 2.827 2.827 0 00.643-.066 2.463 2.463 0 00.49-.165 2.244 2.244 0 00.346-.2q.137-.1.215-.165l.286.715-.247.187a2.193 2.193 0 01-.413.237 3.207 3.207 0 01-.616.2 3.855 3.855 0 01-.847.083 3.812 3.812 0 01-1.358-.231 2.638 2.638 0 01-1.045-.715 3.313 3.313 0 01-.671-1.221 5.788 5.788 0 01-.239-1.757z" fill="#fff"/></svg><svg data-name="Ebene 1" width="128" height="127" viewBox="-50 -50 128 127" y="1239" xmlns="http://www.w3.org/2000/svg"><g fill="#003f97"><path d="M26.418 15a1.59 1.59 0 00-1.6 1.582v7.484H3.182v-7.484a1.591 1.591 0 00-3.182 0v9.067a1.59 1.59 0 001.6 1.582h24.818A1.586 1.586 0 0028 25.649v-9.067A1.586 1.586 0 0026.418 15z"/><path d="M13.36 19.627a.808.808 0 00.64.32.775.775 0 00.622-.32l5.209-7.127a.778.778 0 00-.622-1.244h-3.4V1.8a1.822 1.822 0 00-3.644 0v9.458h-3.4a.825.825 0 00-.693.427.8.8 0 00.071.818z"/></g></svg><svg data-name="Ebene 1" width="128" height="128" viewBox="-50 -50 128 128" x="1368" xmlns="http://www.w3.org/2000/svg"><g fill="#003f97" fill-rule="evenodd"><path d="M20.813 6.169a2.059 2.059 0 002.056-2.056V2.056a2.056 2.056 0 00-4.113 0v2.057a2.059 2.059 0 002.057 2.056z"/><path d="M25.944 3.094h-2.057v1.019s-.038 3.113-3.075 3.113a3.044 3.044 0 01-3.075-3.075L17.7 3.094h-7.457v1.019a3.016 3.016 0 01-3.056 3.113 3.006 3.006 0 01-3.113-3.075V3.094H2.056A2.042 2.042 0 000 5.131v20.813A2.059 2.059 0 002.056 28h23.888A2.059 2.059 0 0028 25.944V5.131a2.042 2.042 0 00-2.056-2.037zm0 7.187v4.67h-5.89v-4.67zm-18 5.419h5.3v4.535h-5.3zM7.2 20.236H2.056V15.7H7.2zm6.051.764v4.939h-5.3V21zM14 21h5.285v4.939H14zm0-.769V15.7h5.285v4.535zm6.054-4.531h5.89v4.535h-5.89zm-.769-5.419v4.67H14v-4.67zm-6.034 0v4.67h-5.3v-4.67zm-6.054 0v4.67H2.056v-4.67zM2.056 21H7.2v4.939H2.056zm18 4.939V21h5.89v4.939z"/><path d="M7.187 6.169a2.059 2.059 0 002.057-2.056V2.056a2.056 2.056 0 00-4.113 0v2.057a2.059 2.059 0 002.056 2.056z"/></g></svg><svg data-name="Ebene 1" width="135" height="134" viewBox="-50 -50 135 134" x="1100" y="274" xmlns="http://www.w3.org/2000/svg"><path d="M9.235 12.391a1.388 1.388 0 001.356 1.426h.023c.281 3.788 3.25 7.575 6.874 7.575 3.647 0 6.617-3.788 6.9-7.575h.023a1.388 1.388 0 001.356-1.426 1.453 1.453 0 00-.795-1.309 9.276 9.276 0 00.421-2.712A8.137 8.137 0 0017.488 0a8.133 8.133 0 00-7.879 8.37 9.276 9.276 0 00.421 2.712 1.453 1.453 0 00-.795 1.309zM34.766 30.16a25.1 25.1 0 00-11.386-6.406.775.775 0 00-.351-.094h-.374a.98.98 0 00-.351.094 10.678 10.678 0 01-4.816 1.075 10.649 10.649 0 01-4.788-1.075.98.98 0 00-.351-.094h-.281c-.047 0-.117.023-.164.023A25.06 25.06 0 00.234 30.16a.751.751 0 00-.234.515v2.642a.749.749 0 00.748.725h33.5a.749.749 0 00.752-.725v-2.642a.751.751 0 00-.234-.515z" fill="#003f97"/></svg><svg data-name="Ebene 1" width="130" height="123" viewBox="-50 -50 130 123" x="130" y="1109" xmlns="http://www.w3.org/2000/svg"><g fill="#003f97"><path d="M27 0H0v23h30V0zm1 20h-1v1H3v-1H2V3h1V2h24v1h1z"/><path d="M24 18v-4l-4-7.5-4 4.5-1-1.5-5 5.5-1-1.5L5 18h19z"/><circle cx="9.5" cy="8.5" r="2.5"/></g></svg><svg data-name="Ebene 1" width="140" height="138" viewBox="-50 -50 140 138" y="699" xmlns="http://www.w3.org/2000/svg"><g fill="#003f97"><path d="M19.086 28.038A1.155 1.155 0 0020 28.5a1.106 1.106 0 00.889-.457l7.441-10.189a1.112 1.112 0 00-.889-1.778h-4.85V2.565a2.6 2.6 0 00-5.206 0v13.511h-4.851a1.178 1.178 0 00-.99.61 1.141 1.141 0 00.1 1.168z"/><path d="M35 23.5V33H5v-9.5A2.5 2.5 0 002.5 21 2.5 2.5 0 000 23.5V34a4 4 0 004 4h32a4 4 0 004-4V23.5a2.5 2.5 0 00-2.5-2.5 2.5 2.5 0 00-2.5 2.5z"/></g></svg><svg data-name="Ebene 1" width="140" height="138" viewBox="-50 -50 140 138" x="140" y="699" xmlns="http://www.w3.org/2000/svg"><g fill="#333"><path d="M19.086 28.038A1.155 1.155 0 0020 28.5a1.106 1.106 0 00.889-.457l7.441-10.189a1.112 1.112 0 00-.889-1.778h-4.85V2.565a2.6 2.6 0 00-5.206 0v13.511h-4.851a1.178 1.178 0 00-.99.61 1.141 1.141 0 00.1 1.168z"/><path d="M35 23.5V33H5v-9.5A2.5 2.5 0 002.5 21 2.5 2.5 0 000 23.5V34a4 4 0 004 4h32a4 4 0 004-4V23.5a2.5 2.5 0 00-2.5-2.5 2.5 2.5 0 00-2.5 2.5z"/></g></svg><svg data-name="Ebene 1" width="140" height="140" viewBox="-50 -50 140 140" y="837" xmlns="http://www.w3.org/2000/svg"><path d="M35.823 20l3.591 3.514a1.768 1.768 0 01.521 1.822 1.788 1.788 0 01-1.353 1.327l-4.893 1.249 1.38 4.841a1.9 1.9 0 01-2.316 2.317l-4.841-1.38-1.249 4.893a1.79 1.79 0 01-1.327 1.353 3.2 3.2 0 01-.495.052 1.715 1.715 0 01-1.327-.573L20 35.819l-3.513 3.591a1.767 1.767 0 01-1.822.521 1.74 1.74 0 01-1.327-1.353l-1.249-4.893-4.841 1.38a1.678 1.678 0 01-1.822-.495 1.678 1.678 0 01-.495-1.822l1.379-4.841-4.892-1.249a1.788 1.788 0 01-1.353-1.327 1.768 1.768 0 01.521-1.821L4.177 20 .586 16.483a1.768 1.768 0 01-.521-1.822 1.79 1.79 0 011.353-1.327l4.893-1.249-1.379-4.841a1.679 1.679 0 01.495-1.822 1.678 1.678 0 011.822-.494l4.841 1.379 1.249-4.893A1.686 1.686 0 0114.665.087a1.679 1.679 0 011.822.494L20 4.2 23.513.582a1.741 1.741 0 011.822-.495 1.687 1.687 0 011.327 1.327l1.249 4.893 4.841-1.379a1.679 1.679 0 011.822.494 1.68 1.68 0 01.495 1.822l-1.38 4.841 4.893 1.249a1.791 1.791 0 011.353 1.327 1.768 1.768 0 01-.521 1.822z" fill="#003f97"/></svg><svg data-name="Ebene 1" width="140" height="140" viewBox="-50 -50 140 140" x="140" y="837" xmlns="http://www.w3.org/2000/svg"><path d="M35.823 20l3.591 3.514a1.768 1.768 0 01.521 1.822 1.788 1.788 0 01-1.353 1.327l-4.893 1.249 1.38 4.841a1.9 1.9 0 01-2.316 2.317l-4.841-1.38-1.249 4.893a1.79 1.79 0 01-1.327 1.353 3.2 3.2 0 01-.495.052 1.715 1.715 0 01-1.327-.573L20 35.819l-3.513 3.591a1.767 1.767 0 01-1.822.521 1.74 1.74 0 01-1.327-1.353l-1.249-4.893-4.841 1.38a1.678 1.678 0 01-1.822-.495 1.678 1.678 0 01-.495-1.822l1.379-4.841-4.892-1.249a1.788 1.788 0 01-1.353-1.327 1.768 1.768 0 01.521-1.821L4.177 20 .586 16.483a1.768 1.768 0 01-.521-1.822 1.79 1.79 0 011.353-1.327l4.893-1.249-1.379-4.841a1.679 1.679 0 01.495-1.822 1.678 1.678 0 011.822-.494l4.841 1.379 1.249-4.893A1.686 1.686 0 0114.665.087a1.679 1.679 0 011.822.494L20 4.2 23.513.582a1.741 1.741 0 011.822-.495 1.687 1.687 0 011.327 1.327l1.249 4.893 4.841-1.379a1.679 1.679 0 011.822.494 1.68 1.68 0 01.495 1.822l-1.38 4.841 4.893 1.249a1.791 1.791 0 011.353 1.327 1.768 1.768 0 01-.521 1.822z" fill="#333"/></svg><svg data-name="Ebene 1" width="137" height="137" viewBox="-50 -50 137 137" x="280" y="699" xmlns="http://www.w3.org/2000/svg"><g fill="#003f97" fill-rule="evenodd"><path d="M27.5 8.152a2.72 2.72 0 002.72-2.718V2.717a2.717 2.717 0 00-5.434 0v2.717A2.72 2.72 0 0027.5 8.152z"/><path d="M34.283 4.089h-2.717v1.345s-.051 4.114-4.066 4.114c0 0-4.063-.051-4.063-4.063l-.051-1.4h-9.851v1.349s.026 4.114-4.035 4.114c0 0-4.114.051-4.114-4.063v-1.4H2.717A2.7 2.7 0 000 6.78v27.5A2.72 2.72 0 002.717 37h31.566A2.72 2.72 0 0037 34.283V6.78a2.7 2.7 0 00-2.717-2.691zm0 9.5v6.171H26.5v-6.174zM10.5 20.747h7.01v5.993H10.5zm-.99 5.993H2.717v-5.993H9.51zm8 1.016v6.526H10.5v-6.526zm.99 0h6.984v6.526H18.5zm0-1.016v-5.993h6.984v5.993zm8-5.993h7.783v5.993H26.5zm-1.016-7.161v6.171H18.5v-6.171zm-7.974 0v6.171H10.5v-6.171zm-8 0v6.171H2.717v-6.171zm-6.793 14.17H9.51v6.526H2.717zM26.5 34.283v-6.527h7.783v6.526z"/><path d="M9.5 8.152a2.72 2.72 0 002.717-2.717V2.717a2.717 2.717 0 00-5.434 0v2.717A2.72 2.72 0 009.5 8.152z"/></g></svg><svg data-name="Ebene 1" width="137" height="137" viewBox="-50 -50 137 137" x="417" y="699" xmlns="http://www.w3.org/2000/svg"><g fill="#333" fill-rule="evenodd"><path d="M27.5 8.152a2.72 2.72 0 002.72-2.718V2.717a2.717 2.717 0 00-5.434 0v2.717A2.72 2.72 0 0027.5 8.152z"/><path d="M34.283 4.089h-2.717v1.345s-.051 4.114-4.066 4.114c0 0-4.063-.051-4.063-4.063l-.051-1.4h-9.851v1.349s.026 4.114-4.035 4.114c0 0-4.114.051-4.114-4.063v-1.4H2.717A2.7 2.7 0 000 6.78v27.5A2.72 2.72 0 002.717 37h31.566A2.72 2.72 0 0037 34.283V6.78a2.7 2.7 0 00-2.717-2.691zm0 9.5v6.171H26.5v-6.174zM10.5 20.747h7.01v5.993H10.5zm-.99 5.993H2.717v-5.993H9.51zm8 1.016v6.526H10.5v-6.526zm.99 0h6.984v6.526H18.5zm0-1.016v-5.993h6.984v5.993zm8-5.993h7.783v5.993H26.5zm-1.016-7.161v6.171H18.5v-6.171zm-7.974 0v6.171H10.5v-6.171zm-8 0v6.171H2.717v-6.171zm-6.793 14.17H9.51v6.526H2.717zM26.5 34.283v-6.527h7.783v6.526z"/><path d="M9.5 8.152a2.72 2.72 0 002.717-2.717V2.717a2.717 2.717 0 00-5.434 0v2.717A2.72 2.72 0 009.5 8.152z"/></g></svg><svg data-name="Ebene 1" width="142" height="134" viewBox="-50 -50 142 134" x="260" y="556" xmlns="http://www.w3.org/2000/svg"><g fill="#003f97"><path d="M40 31H7V8h33m2-3H5v29h37V5z"/><path d="M34.6 27.833V22.9l-4.933-9.25-4.934 5.55-1.233-1.85-6.167 6.783-1.233-1.85-4.933 5.55H34.6z"/><circle cx="16.717" cy="16.117" r="3.083"/></g><path fill="#003f97" d="M4 26H2V3h33v1h2V0H0v29h4v-3z"/></svg><svg data-name="Ebene 1" width="142" height="134" viewBox="-50 -50 142 134" x="402" y="556" xmlns="http://www.w3.org/2000/svg"><g fill="#333"><path d="M40 31H7V8h33m2-3H5v29h37V5z"/><path d="M34.6 27.833V22.9l-4.933-9.25-4.934 5.55-1.233-1.85-6.167 6.783-1.233-1.85-4.933 5.55H34.6z"/><circle cx="16.717" cy="16.117" r="3.083"/></g><path fill="#333" d="M4 26H2V3h33v1h2V0H0v29h4v-3z"/></svg><svg data-name="Ebene 1" width="132" height="134" viewBox="-50 -50 132 134" x="1100" y="666" xmlns="http://www.w3.org/2000/svg"><path d="M20.912 8.745a1.525 1.525 0 001.243-.409l.855-1c.233-.281.155-.537-.181-.69a.877.877 0 00-.363-.128l-4.713-1.15c-1.217-.281-2.46-.588-3.7-.869a1.422 1.422 0 00-1.476.511 5.93 5.93 0 01-.518.613c-.518.613-.414.895.363 1.1h.078l6.293 1.508zM28.655 17l-.285.358-7.717 9.382a1.448 1.448 0 01-1.865.537c-5.076-1.534-10.178-3.067-15.253-4.6-.337-.1-.466-.026-.6.281a3.052 3.052 0 00.129 2.761 1.564 1.564 0 00.936.766c4.869 1.534 9.763 3.067 14.632 4.6a.483.483 0 00.622-.179c.673-.818 1.347-1.636 2.02-2.428l7.691-9.228c.078-.1.181-.23.155-.332A28.76 28.76 0 0028.655 17zm-8.986 17h-.414l-.544-.153-15.539-4.908a3.935 3.935 0 01-2.434-1.994 5.386 5.386 0 01.078-5.573.38.38 0 00-.026-.435 8.575 8.575 0 01-.6-1.61 11.539 11.539 0 01-.155-2.122 5.835 5.835 0 011.58-4.115c1.557-1.69 3.059-3.374 4.613-5.035C8.481 5.55 10.786 3.044 13.039.539a1.528 1.528 0 011.58-.486c5.335 1.2 10.67 2.377 16 3.579l.207.051a1.2 1.2 0 01.725 2.147c-3.962 4.627-7.95 9.253-11.913 13.88a1.379 1.379 0 01-1.632.46L7.212 16.95c-.881-.256-1.787-.537-2.693-.792a1.33 1.33 0 00-1.761.895 3.776 3.776 0 00.181 2.326 1 1 0 00.7.613c4.972 1.508 9.945 2.991 14.917 4.524a.579.579 0 00.725-.23c3.211-3.911 6.422-7.848 9.66-11.733a.966.966 0 00.207-.741 4.527 4.527 0 01.363-2.4 1.3 1.3 0 012.227-.2 1.6 1.6 0 01.181 1.329 2.334 2.334 0 00-.1 1.176 2.369 2.369 0 01-.052 1.738 6.765 6.765 0 00.026 4.985 1.653 1.653 0 01-.285 1.892 5507.047 5507.047 0 00-10.7 12.832 2.2 2.2 0 01-1.139.836z" fill="#003f97" fill-rule="evenodd"/></svg><svg data-name="Ebene 1" width="132" height="134" viewBox="-50 -50 132 134" x="1100" y="800" xmlns="http://www.w3.org/2000/svg"><path d="M20.912 8.745a1.525 1.525 0 001.243-.409l.855-1c.233-.281.155-.537-.181-.69a.877.877 0 00-.363-.128l-4.713-1.15c-1.217-.281-2.46-.588-3.7-.869a1.422 1.422 0 00-1.476.511 5.93 5.93 0 01-.518.613c-.518.613-.414.895.363 1.1h.078l6.293 1.508zM28.655 17l-.285.358-7.717 9.382a1.448 1.448 0 01-1.865.537c-5.076-1.534-10.178-3.067-15.253-4.6-.337-.1-.466-.026-.6.281a3.052 3.052 0 00.129 2.761 1.564 1.564 0 00.936.766c4.869 1.534 9.763 3.067 14.632 4.6a.483.483 0 00.622-.179c.673-.818 1.347-1.636 2.02-2.428l7.691-9.228c.078-.1.181-.23.155-.332A28.76 28.76 0 0028.655 17zm-8.986 17h-.414l-.544-.153-15.539-4.908a3.935 3.935 0 01-2.434-1.994 5.386 5.386 0 01.078-5.573.38.38 0 00-.026-.435 8.575 8.575 0 01-.6-1.61 11.539 11.539 0 01-.155-2.122 5.835 5.835 0 011.58-4.115c1.557-1.69 3.059-3.374 4.613-5.035C8.481 5.55 10.786 3.044 13.039.539a1.528 1.528 0 011.58-.486c5.335 1.2 10.67 2.377 16 3.579l.207.051a1.2 1.2 0 01.725 2.147c-3.962 4.627-7.95 9.253-11.913 13.88a1.379 1.379 0 01-1.632.46L7.212 16.95c-.881-.256-1.787-.537-2.693-.792a1.33 1.33 0 00-1.761.895 3.776 3.776 0 00.181 2.326 1 1 0 00.7.613c4.972 1.508 9.945 2.991 14.917 4.524a.579.579 0 00.725-.23c3.211-3.911 6.422-7.848 9.66-11.733a.966.966 0 00.207-.741 4.527 4.527 0 01.363-2.4 1.3 1.3 0 012.227-.2 1.6 1.6 0 01.181 1.329 2.334 2.334 0 00-.1 1.176 2.369 2.369 0 01-.052 1.738 6.765 6.765 0 00.026 4.985 1.653 1.653 0 01-.285 1.892 5507.047 5507.047 0 00-10.7 12.832 2.2 2.2 0 01-1.139.836z" fill="#333" fill-rule="evenodd"/></svg><svg data-name="Ebene 1" width="135" height="129" viewBox="-50 -50 135 129" x="1100" y="408" xmlns="http://www.w3.org/2000/svg"><path d="M28 13V7H7V3h16V0H4v7H0v22h28v-7l7 5V8zm-8 5H7v-3h13z" fill="#003f97" fill-rule="evenodd"/></svg><svg data-name="Ebene 1" width="135" height="129" viewBox="-50 -50 135 129" x="1100" y="537" xmlns="http://www.w3.org/2000/svg"><path d="M28 13V7H7V3h16V0H4v7H0v22h28v-7l7 5V8zm-8 5H7v-3h13z" fill="#333" fill-rule="evenodd"/></svg><svg data-name="Ebene 1" width="136" height="137" viewBox="-50 -50 136 137" x="554" y="699" xmlns="http://www.w3.org/2000/svg"><path d="M34.013.5H1.987A1.987 1.987 0 000 2.487v32.026A1.987 1.987 0 001.987 36.5h17.242V22.559h-4.692v-5.433h4.691v-4.007c0-4.65 2.84-7.182 6.988-7.182a38.5 38.5 0 014.192.214v4.859h-2.876c-2.256 0-2.693 1.072-2.693 2.645v3.469h5.38l-.7 5.433h-4.68V36.5h9.174A1.987 1.987 0 0036 34.513V2.487A1.987 1.987 0 0034.013.5z" fill="#003f97"/></svg><svg data-name="Ebene 1" width="136" height="137" viewBox="-50 -50 136 137" x="690" y="699" xmlns="http://www.w3.org/2000/svg"><path d="M34.013.5H1.987A1.987 1.987 0 000 2.487v32.026A1.987 1.987 0 001.987 36.5h17.242V22.559h-4.692v-5.433h4.691v-4.007c0-4.65 2.84-7.182 6.988-7.182a38.5 38.5 0 014.192.214v4.859h-2.876c-2.256 0-2.693 1.072-2.693 2.645v3.469h5.38l-.7 5.433h-4.68V36.5h9.174A1.987 1.987 0 0036 34.513V2.487A1.987 1.987 0 0034.013.5z" fill="#333"/></svg><svg data-name="Ebene 1" width="136" height="137" viewBox="-50 -50 136 137" x="826" y="699" xmlns="http://www.w3.org/2000/svg"><g fill="#003f97"><path d="M32 2a2 2 0 012 2v29a2 2 0 01-2 2H4a2 2 0 01-2-2V4a2 2 0 012-2h28m0-2H4a4 4 0 00-4 4v29a4 4 0 004 4h28a4 4 0 004-4V4a4 4 0 00-4-4z"/><circle cx="11" cy="18.5" r="5"/><circle cx="25" cy="18.5" r="5"/></g></svg><svg data-name="Ebene 1" width="136" height="137" viewBox="-50 -50 136 137" x="962" y="699" xmlns="http://www.w3.org/2000/svg"><g fill="#333"><path d="M32 2a2 2 0 012 2v29a2 2 0 01-2 2H4a2 2 0 01-2-2V4a2 2 0 012-2h28m0-2H4a4 4 0 00-4 4v29a4 4 0 004 4h28a4 4 0 004-4V4a4 4 0 00-4-4z"/><circle cx="11" cy="18.5" r="5"/><circle cx="25" cy="18.5" r="5"/></g></svg><svg data-name="Ebene 1" width="136" height="137" viewBox="-50 -50 136 137" x="280" y="837" xmlns="http://www.w3.org/2000/svg"><path d="M.03 16.862A11.407 11.407 0 0111.434 6.01a11.586 11.586 0 017.637 2.822 40.7 40.7 0 01-2.9 3c-2.6-1.8-6.294-2.309-8.893-.235a7.32 7.32 0 00-.311 11.409c3.477 3.155 10.05 1.589 11.011-3.243-2.178-.033-4.362 0-6.54-.071-.005-1.3-.011-2.6-.005-3.9 3.641-.011 7.282-.016 10.929.011.218 3.057-.186 6.311-2.064 8.838-2.844 4-8.554 5.17-13.009 3.456A11.441 11.441 0 01.03 16.862zm29.436-4.345h3.248c.005 1.086.011 2.178.022 3.265 1.086.011 2.178.011 3.265.022v3.248c-1.086.011-2.173.016-3.265.027q-.016 1.638-.022 3.265H29.46c-.011-1.086-.011-2.173-.022-3.259l-3.265-.033V15.8q1.63-.016 3.265-.022.008-1.634.028-3.261z" fill="#003f97"/></svg><svg data-name="Ebene 1" width="136" height="137" viewBox="-50 -50 136 137" x="416" y="837" xmlns="http://www.w3.org/2000/svg"><path d="M.03 16.862A11.407 11.407 0 0111.434 6.01a11.586 11.586 0 017.637 2.822 40.7 40.7 0 01-2.9 3c-2.6-1.8-6.294-2.309-8.893-.235a7.32 7.32 0 00-.311 11.409c3.477 3.155 10.05 1.589 11.011-3.243-2.178-.033-4.362 0-6.54-.071-.005-1.3-.011-2.6-.005-3.9 3.641-.011 7.282-.016 10.929.011.218 3.057-.186 6.311-2.064 8.838-2.844 4-8.554 5.17-13.009 3.456A11.441 11.441 0 01.03 16.862zm29.436-4.345h3.248c.005 1.086.011 2.178.022 3.265 1.086.011 2.178.011 3.265.022v3.248c-1.086.011-2.173.016-3.265.027q-.016 1.638-.022 3.265H29.46c-.011-1.086-.011-2.173-.022-3.259l-3.265-.033V15.8q1.63-.016 3.265-.022.008-1.634.028-3.261z" fill="#333"/></svg><svg data-name="Ebene 1" width="136" height="137" viewBox="-50 -50 136 137" x="552" y="837" xmlns="http://www.w3.org/2000/svg"><g fill="#003f97"><path d="M4.972 26.859a5.073 5.073 0 010 10.141 5.073 5.073 0 010-10.141z"/><path d="M23.845 37h-6.963A17.077 17.077 0 00.052 19.675v-7.186c13.155 0 23.793 10.971 23.793 24.511z"/><path d="M28.762 37c0-16.358-12.848-29.594-28.71-29.594V0c19.842 0 35.9 16.58 35.9 37h-7.19z"/></g></svg><svg data-name="Ebene 1" width="136" height="137" viewBox="-50 -50 136 137" x="688" y="837" xmlns="http://www.w3.org/2000/svg"><g fill="#333"><path d="M4.972 26.859a5.073 5.073 0 010 10.141 5.073 5.073 0 010-10.141z"/><path d="M23.845 37h-6.963A17.077 17.077 0 00.052 19.675v-7.186c13.155 0 23.793 10.971 23.793 24.511z"/><path d="M28.762 37c0-16.358-12.848-29.594-28.71-29.594V0c19.842 0 35.9 16.58 35.9 37h-7.19z"/></g></svg><svg data-name="Ebene 1" width="136" height="137" viewBox="-50 -50 136 137" x="824" y="837" xmlns="http://www.w3.org/2000/svg"><path d="M35.94 7.432A14.7 14.7 0 0131.717 8.6a7.5 7.5 0 003.236-4.053 15.15 15.15 0 01-4.673 1.779 7.366 7.366 0 00-12.738 5 6.727 6.727 0 00.195 1.668A20.911 20.911 0 012.558 5.339a7.46 7.46 0 00-.988 3.683 7.333 7.333 0 003.277 6.106 7.2 7.2 0 01-3.333-.928v.1A7.354 7.354 0 007.4 21.485a7.963 7.963 0 01-1.94.252 7.941 7.941 0 01-1.368-.137 7.33 7.33 0 006.86 5.079 14.662 14.662 0 01-9.127 3.141c-.6 0-1.186-.038-1.766-.1A20.946 20.946 0 0011.342 33c13.549 0 20.935-11.145 20.935-20.819 0-.33 0-.64-.021-.951a14.535 14.535 0 003.684-3.798z" fill="#003f97"/></svg><svg data-name="Ebene 1" width="136" height="137" viewBox="-50 -50 136 137" x="960" y="837" xmlns="http://www.w3.org/2000/svg"><path d="M35.94 7.432A14.7 14.7 0 0131.717 8.6a7.5 7.5 0 003.236-4.053 15.15 15.15 0 01-4.673 1.779 7.366 7.366 0 00-12.738 5 6.727 6.727 0 00.195 1.668A20.911 20.911 0 012.558 5.339a7.46 7.46 0 00-.988 3.683 7.333 7.333 0 003.277 6.106 7.2 7.2 0 01-3.333-.928v.1A7.354 7.354 0 007.4 21.485a7.963 7.963 0 01-1.94.252 7.941 7.941 0 01-1.368-.137 7.33 7.33 0 006.86 5.079 14.662 14.662 0 01-9.127 3.141c-.6 0-1.186-.038-1.766-.1A20.946 20.946 0 0011.342 33c13.549 0 20.935-11.145 20.935-20.819 0-.33 0-.64-.021-.951a14.535 14.535 0 003.684-3.798z" fill="#333"/></svg><svg data-name="Ebene 1" width="136" height="137" viewBox="-50 -50 136 137" x="1100" xmlns="http://www.w3.org/2000/svg"><path d="M35.641 11.3a7.789 7.789 0 00-1.431-3.573A5.149 5.149 0 0030.6 6.2c-5.035-.36-12.592-.36-12.592-.36h-.016s-7.556 0-12.592.36a5.149 5.149 0 00-3.609 1.529A7.785 7.785 0 00.36 11.3 54.44 54.44 0 000 17.129v2.731a54.44 54.44 0 00.36 5.826 7.785 7.785 0 001.431 3.574A6.1 6.1 0 005.76 30.8c2.88.276 12.24.362 12.24.362s7.565-.011 12.6-.375a5.149 5.149 0 003.607-1.525 7.789 7.789 0 001.431-3.573A54.522 54.522 0 0036 19.86v-2.731a54.522 54.522 0 00-.359-5.829zM14.283 23.17V13.055l9.727 5.075z" fill="#003f97"/></svg><svg data-name="Ebene 1" width="136" height="137" viewBox="-50 -50 136 137" x="1100" y="137" xmlns="http://www.w3.org/2000/svg"><path d="M35.641 11.3a7.789 7.789 0 00-1.431-3.573A5.149 5.149 0 0030.6 6.2c-5.035-.36-12.592-.36-12.592-.36h-.016s-7.556 0-12.592.36a5.149 5.149 0 00-3.609 1.529A7.785 7.785 0 00.36 11.3 54.44 54.44 0 000 17.129v2.731a54.44 54.44 0 00.36 5.826 7.785 7.785 0 001.431 3.574A6.1 6.1 0 005.76 30.8c2.88.276 12.24.362 12.24.362s7.565-.011 12.6-.375a5.149 5.149 0 003.607-1.525 7.789 7.789 0 001.431-3.573A54.522 54.522 0 0036 19.86v-2.731a54.522 54.522 0 00-.359-5.829zM14.283 23.17V13.055l9.727 5.075z" fill="#333"/></svg></svg>